# Blender 5.1.2
# www.blender.org
o HumanLow
v 0.204018 0.585980 -0.012714
v 0.182317 0.601477 0.102363
v 0.095652 0.601477 0.102363
v 0.073952 0.585980 -0.012714
v 0.145873 0.101878 -0.041803
v 0.130214 0.101878 0.060545
v 0.216925 0.101878 0.060545
v 0.201267 0.101878 -0.041803
v 0.218556 0.001012 -0.056775
v 0.128584 0.001012 -0.038395
v 0.132578 0.001012 0.114505
v 0.230771 0.001012 0.088310
v 0.137877 0.042153 0.249172
v 0.216730 0.034050 0.235835
v 0.231377 -0.001025 0.224849
v 0.115763 -0.001025 0.242068
v 0.086958 0.549551 0.115117
v 0.191011 0.549551 0.115117
v 0.075994 0.446094 -0.058787
v 0.217823 0.446094 -0.058787
v 0.163228 1.074129 0.137850
v 0.163061 1.061983 -0.071234
v 0.192827 0.939277 -0.069293
v 0.134071 1.232386 0.113104
v 0.156011 1.232386 -0.039588
v 0.150715 1.456774 0.110231
v 0.166990 1.504943 -0.104881
v 0.129298 1.621634 0.090801
v 0.172348 1.627023 -0.075530
v 0.292920 1.288112 -0.068648
v 0.294348 1.261890 0.025875
v 0.224522 1.238198 -0.064175
v 0.216796 1.213177 0.033581
v 0.063203 1.664156 0.010681
v 0.312551 1.261717 -0.078929
v 0.243687 1.181918 -0.078929
v 0.348743 1.005957 0.056556
v 0.312077 0.975234 0.056556
v 0.351491 1.004101 -0.013116
v 0.237228 1.542835 0.067978
v 0.256866 1.547362 -0.064066
v 0.403226 0.892420 0.118543
v 0.287163 0.945350 0.087145
v 0.309371 0.943399 -0.026862
v 0.385931 0.862996 -0.041366
v 0.323792 0.830571 0.118543
v 0.320725 0.856594 -0.039569
v 0.069369 1.712631 0.010681
v 0.060363 1.695242 0.117183
v 0.087972 1.800795 0.119867
v 0.079111 1.917483 0.114259
v 0.087972 1.795755 -0.055406
v 0.079111 1.921374 -0.056769
v -0.000002 1.965068 -0.015152
v -0.000002 1.955331 0.103664
v -0.079111 1.921374 -0.056769
v -0.000002 1.921414 -0.098006
v -0.000002 1.771472 -0.116269
v -0.087972 1.795755 -0.055406
v -0.079111 1.917483 0.114259
v -0.087972 1.800795 0.119867
v -0.000002 1.898342 0.172222
v -0.000002 1.781039 0.186901
v -0.000002 1.685263 0.169948
v -0.060363 1.695242 0.117183
v -0.000002 1.694542 -0.069190
v -0.000002 1.667634 0.090502
v -0.069369 1.712631 0.010681
v -0.320725 0.856594 -0.039569
v -0.323792 0.830571 0.118543
v -0.385930 0.862996 -0.041366
v -0.309371 0.943399 -0.026862
v -0.287162 0.945350 0.087145
v -0.403225 0.892420 0.118543
v -0.256865 1.547362 -0.064066
v -0.237228 1.542835 0.067978
v -0.000002 1.617999 0.095863
v -0.000002 1.621071 -0.090806
v -0.351491 1.004101 -0.013116
v -0.312077 0.975234 0.056556
v -0.348743 1.005957 0.056556
v -0.243687 1.181918 -0.078929
v -0.312550 1.261717 -0.078929
v -0.063202 1.664156 0.010681
v -0.216796 1.213177 0.033581
v -0.224522 1.238198 -0.064175
v -0.294348 1.261890 0.025875
v -0.292920 1.288112 -0.068648
v -0.172347 1.627023 -0.075530
v -0.129298 1.621634 0.090801
v -0.000002 1.455858 0.150260
v -0.000002 1.520128 -0.142679
v -0.166990 1.504943 -0.104881
v -0.150715 1.456774 0.110231
v -0.000002 1.228824 0.147699
v -0.000002 1.228824 -0.082420
v -0.156011 1.232386 -0.039588
v -0.134071 1.232386 0.113104
v -0.192826 0.939277 -0.069293
v -0.000002 0.931916 -0.092766
v -0.000002 0.933496 0.136309
v -0.000002 1.035529 -0.129773
v -0.000002 1.042395 0.146343
v -0.163061 1.061983 -0.071234
v -0.163228 1.074129 0.137850
v -0.217823 0.446094 -0.058787
v -0.075994 0.446094 -0.058787
v -0.191011 0.549551 0.115117
v -0.086958 0.549551 0.115117
v -0.115763 -0.001025 0.242068
v -0.231377 -0.001025 0.224849
v -0.216730 0.034050 0.235835
v -0.137877 0.042153 0.249172
v -0.230771 0.001012 0.088310
v -0.132578 0.001012 0.114505
v -0.128584 0.001012 -0.038395
v -0.218556 0.001012 -0.056775
v -0.201267 0.101878 -0.041803
v -0.216925 0.101878 0.060545
v -0.130214 0.101878 0.060545
v -0.145872 0.101878 -0.041803
v -0.073951 0.585980 -0.012714
v -0.095652 0.601477 0.102363
v -0.182317 0.601477 0.102363
v -0.204017 0.585980 -0.012714
v 0.218556 0.001012 -0.056775
v 0.128584 0.001012 -0.038395
v 0.231377 -0.001025 0.224849
v 0.115763 -0.001025 0.242068
v 0.230771 0.001012 0.088310
v 0.132578 0.001012 0.114505
v 0.060363 1.695242 0.117183
v -0.000002 1.685263 0.169948
v -0.060363 1.695242 0.117183
v -0.000002 1.617999 0.095863
v -0.000002 0.931916 -0.092766
v -0.000002 0.931916 -0.092766
v -0.000002 0.933496 0.136309
v -0.000002 0.933496 0.136309
v -0.230771 0.001012 0.088310
v -0.218556 0.001012 -0.056775
v -0.132578 0.001012 0.114505
v -0.128584 0.001012 -0.038395
v -0.115763 -0.001025 0.242068
v -0.231377 -0.001025 0.224849
vn -0.6851 -0.0257 -0.7280
vn 0.6598 0.0604 -0.7490
vn 0.6258 0.1442 -0.7665
vn -0.7697 0.0768 -0.6338
vn -0.8728 0.2440 0.4228
vn -0.4447 0.4045 0.7991
vn 0.5556 0.3982 0.7299
vn 0.8663 0.3396 0.3662
vn -0.8038 -0.0247 0.5944
vn 0.8530 0.0501 0.5195
vn 0.9827 0.1840 -0.0186
vn -0.9938 0.1097 -0.0171
vn -0.0019 -1.0000 -0.0093
vn -0.0014 -1.0000 -0.0067
vn -0.0032 -0.9999 -0.0156
vn -0.0000 -1.0000 -0.0000
vn -0.6339 0.0356 0.7726
vn -0.6643 0.0495 0.7458
vn 0.6404 0.0958 0.7620
vn 0.6711 0.1356 0.7289
vn -0.7059 0.0273 -0.7078
vn 0.7005 0.1146 -0.7044
vn 0.8120 0.1059 -0.5740
vn -0.7717 -0.0499 -0.6340
vn -0.0000 -0.0917 0.9958
vn 0.7037 0.0722 0.7069
vn -0.0000 -0.0170 0.9999
vn 0.7910 -0.0373 -0.6107
vn 0.7574 0.1341 -0.6390
vn -0.0000 0.0232 -0.9997
vn -0.0000 -0.1387 -0.9903
vn 0.8523 0.0193 -0.5227
vn 0.7387 0.0450 0.6725
vn -0.0000 -0.0000 -1.0000
vn -0.0000 0.0363 0.9993
vn 0.3407 -0.0299 0.9397
vn 0.2201 0.0033 -0.9755
vn -0.7166 -0.1156 -0.6878
vn -0.7149 -0.2293 0.6605
vn 0.6913 0.3066 -0.6543
vn 0.6593 0.3383 -0.6715
vn -0.5318 -0.2439 -0.8110
vn 0.7623 0.1222 0.6355
vn -0.7143 0.3693 0.5944
vn 0.6566 0.3819 0.6504
vn 0.8089 0.1391 -0.5712
vn -0.6592 -0.0825 -0.7474
vn 0.7095 0.7023 0.0577
vn 0.3414 0.6623 0.6669
vn 0.4265 0.7535 -0.5004
vn -0.0000 0.5148 0.8573
vn -0.0000 0.5136 -0.8580
vn -0.0000 0.0739 -0.9973
vn -0.0000 0.1089 0.9940
vn 0.7270 0.3643 0.5820
vn 0.7889 0.3891 -0.4757
vn -0.7953 0.2920 0.5312
vn 0.7050 -0.1218 0.6986
vn 0.7235 -0.3353 -0.6035
vn -0.3698 -0.7338 0.5699
vn -0.3461 -0.6190 -0.7050
vn -0.6600 -0.3127 -0.6831
vn -0.5278 -0.2001 0.8254
vn -0.0000 -0.0246 0.9997
vn 0.9413 -0.3036 -0.1475
vn -0.0000 -0.8399 0.5428
vn -0.0000 -0.3200 -0.9474
vn 0.4082 -0.9127 0.0209
vn -0.0000 -0.9997 0.0229
vn 0.8543 -0.2087 0.4760
vn 0.8986 -0.0514 0.4357
vn -0.0000 -0.0619 0.9981
vn -0.0000 -0.2094 0.9778
vn 0.8681 -0.1511 -0.4728
vn -0.0000 -0.3063 -0.9519
vn 0.7471 0.5052 -0.4320
vn 0.7623 0.5052 0.4047
vn -0.0000 0.3916 0.9201
vn -0.0000 0.9483 0.3175
vn -0.0000 0.4988 -0.8667
vn -0.0000 0.9907 -0.1364
vn -0.7623 0.5052 0.4047
vn -0.8986 -0.0514 0.4357
vn -0.8681 -0.1511 -0.4728
vn -0.7471 0.5052 -0.4320
vn -0.9413 -0.3035 -0.1475
vn -0.8544 -0.2087 0.4760
vn -0.4082 -0.9127 0.0209
vn -0.2201 0.0033 -0.9755
vn -0.8523 0.0193 -0.5227
vn -0.7387 0.0450 0.6725
vn -0.3407 -0.0299 0.9397
vn -0.7095 0.7023 0.0577
vn 0.6339 0.0356 0.7726
vn 0.7717 -0.0499 -0.6340
vn 0.6600 -0.3127 -0.6831
vn 0.5278 -0.2001 0.8254
vn -0.6711 0.1356 0.7289
vn -0.7037 0.0722 0.7069
vn -0.8120 0.1059 -0.5740
vn -0.7910 -0.0373 -0.6107
vn -0.8089 0.1391 -0.5712
vn 0.6592 -0.0825 -0.7474
vn 0.3461 -0.6190 -0.7050
vn -0.7235 -0.3353 -0.6035
vn 0.7953 0.2920 0.5312
vn 0.3698 -0.7338 0.5699
vn -0.7050 -0.1218 0.6987
vn 0.7143 0.3693 0.5944
vn -0.6566 0.3819 0.6504
vn 0.7166 -0.1156 -0.6878
vn -0.6913 0.3066 -0.6543
vn -0.7889 0.3891 -0.4757
vn -0.7270 0.3643 0.5820
vn -0.7623 0.1222 0.6355
vn 0.7149 -0.2293 0.6605
vn -0.4265 0.7535 -0.5004
vn -0.3414 0.6623 0.6669
vn 0.5318 -0.2439 -0.8110
vn -0.6593 0.3383 -0.6715
vn -0.7574 0.1341 -0.6390
vn 0.6643 0.0495 0.7458
vn 0.7059 0.0273 -0.7078
vn -0.7005 0.1146 -0.7044
vn -0.6404 0.0958 0.7620
vn 0.6851 -0.0257 -0.7280
vn 0.8728 0.2440 0.4228
vn -0.8663 0.3396 0.3662
vn -0.6598 0.0604 -0.7490
vn 0.0019 -1.0000 -0.0093
vn 0.0014 -1.0000 -0.0067
vn 0.0032 -0.9999 -0.0156
vn -0.6258 0.1442 -0.7665
vn -0.9827 0.1840 -0.0186
vn 0.9938 0.1097 -0.0171
vn 0.7697 0.0768 -0.6338
vn 0.4447 0.4045 0.7991
vn 0.8038 -0.0247 0.5944
vn -0.8530 0.0501 0.5195
vn -0.5556 0.3982 0.7299
vt 0.218597 0.624971
vt 0.241367 0.624971
vt 0.248473 0.666725
vt 0.211491 0.666275
vt 0.538829 0.759884
vt 0.535343 0.840975
vt 0.503262 0.837135
vt 0.503241 0.759884
vt 0.743362 0.793486
vt 0.725960 0.802758
vt 0.725960 0.755233
vt 0.740086 0.761105
vt 0.689288 0.578860
vt 0.760419 0.609015
vt 0.755314 0.623600
vt 0.699265 0.620928
vt 0.956713 0.342715
vt 0.937294 0.385530
vt 0.885499 0.390152
vt 0.880911 0.372351
vt 0.998264 0.339648
vt 1.000000 0.381321
vt 0.639794 0.618703
vt 0.647404 0.577125
vt 0.462831 0.830131
vt 0.503241 0.819542
vt 0.503241 0.875669
vt 0.455687 0.882536
vt 0.498484 0.759884
vt 0.461468 0.767275
vt 0.412824 0.410498
vt 0.411297 0.432398
vt 0.369683 0.422516
vt 0.378165 0.402268
vt 0.351950 0.605348
vt 0.317273 0.597113
vt 0.189874 0.484148
vt 0.248172 0.484148
vt 0.242497 0.425623
vt 0.189034 0.425623
vt 0.644672 0.436106
vt 0.717688 0.395362
vt 0.923230 0.161336
vt 0.997501 0.199039
vt 0.665522 0.379021
vt 0.713199 0.373689
vt 0.926845 0.139578
vt 0.974890 0.143016
vt 0.482307 0.288084
vt 0.430340 0.216521
vt 0.492557 0.244922
vt 0.646916 0.233095
vt 0.647982 0.182039
vt 0.734013 0.179852
vt 0.158635 0.244029
vt 0.225662 0.231742
vt 0.237897 0.282043
vt 0.158635 0.285638
vt 0.663231 0.112404
vt 0.726161 0.113925
vt 0.158635 0.163557
vt 0.222764 0.161048
vt 0.457158 0.155460
vt 0.510209 0.170587
vt 0.760419 0.651928
vt 0.846081 0.623594
vt 0.838341 0.733533
vt 0.799541 0.747694
vt 0.279041 0.138893
vt 0.287110 0.149975
vt 0.258804 0.182719
vt 0.250926 0.159264
vt 0.322466 0.780035
vt 0.360430 0.793607
vt 0.317273 0.790988
vt 0.846081 0.755724
vt 0.422786 0.153029
vt 0.361985 0.239550
vt 0.350232 0.223811
vt 0.396437 0.126014
vt 0.303116 0.254069
vt 0.285803 0.279313
vt 0.364968 0.900536
vt 0.336327 0.899291
vt 0.832425 0.854458
vt 0.797057 0.844670
vt 0.207210 0.736473
vt 0.170390 0.709206
vt 0.234787 0.693447
vt 0.167393 0.762282
vt 0.239017 0.764482
vt 0.227277 0.050810
vt 0.158636 0.045504
vt 0.158635 0.002816
vt 0.229480 0.000000
vt 0.471779 0.064282
vt 0.496093 0.000000
vt 0.547425 0.013873
vt 0.531701 0.080087
vt 0.445616 0.020544
vt 0.386482 0.678539
vt 0.332282 0.673220
vt 0.264221 0.032406
vt 0.368913 0.254699
vt 0.317273 0.265675
vt 0.386482 0.950110
vt 0.320269 0.957007
vt 0.786288 0.858413
vt 0.752772 0.689416
vt 0.758606 0.755233
vt 0.725960 0.754682
vt 0.725960 0.689644
vt 0.343181 0.297893
vt 0.840683 0.889314
vt 0.777008 0.906109
vt 0.317273 0.312659
vt 0.290470 0.315242
vt 0.906149 0.005741
vt 1.000000 -0.000000
vt 0.544105 0.759710
vt 0.508183 0.742946
vt 0.507733 0.723206
vt 0.541496 0.739387
vt 0.467382 0.759884
vt 0.475661 0.729574
vt 0.639794 0.000000
vt 0.727690 0.022245
vt 0.195906 0.797352
vt 0.224420 0.764482
vt 0.220719 0.808282
vt 0.195906 0.829984
vt 0.106420 0.757935
vt 0.095071 0.714733
vt 0.131233 0.724771
vt 0.131233 0.763552
vt 0.479738 0.690057
vt 0.551712 0.686643
vt 0.551712 0.729306
vt 0.455687 0.698373
vt 0.478224 0.638316
vt 0.548527 0.638599
vt 0.271910 0.773311
vt 0.239017 0.748948
vt 0.270571 0.738438
vt 0.271501 0.666725
vt 0.270401 0.691636
vt 0.239017 0.683130
vt 0.158035 0.799714
vt 0.096063 0.799714
vt 0.095071 0.767195
vt 0.146581 0.763552
vt 0.098713 0.666725
vt 0.131233 0.676249
vt 0.163750 0.666725
vt 0.167393 0.714733
vt 0.146581 0.835874
vt 0.095071 0.832231
vt 0.303941 0.747602
vt 0.303941 0.681784
vt 0.000300 0.715190
vt 0.003292 0.667167
vt 0.073512 0.666725
vt 0.072194 0.718445
vt 0.044036 0.751849
vt 0.095071 0.727465
vt 0.075167 0.758742
vt -0.000000 0.758131
vt 0.156044 0.757935
vt 0.171094 0.808282
vt 0.167393 0.764482
vt 0.089995 0.050810
vt 0.094508 0.161048
vt 0.564396 0.180926
vt 0.592329 0.092909
vt 0.794108 0.114300
vt 0.792890 0.022372
vt 0.880911 -0.000000
vt 0.857243 0.112608
vt 0.043535 0.771662
vt 0.083482 0.789063
vt 0.006849 0.789063
vt 0.009425 0.768714
vt 0.953550 0.528334
vt 0.905731 0.532196
vt 0.880911 0.390152
vt 0.974901 0.395454
vt 0.523991 0.436898
vt 0.489332 0.428667
vt 0.560898 0.247525
vt 0.074775 0.425623
vt 0.079375 0.282043
vt 0.128239 0.425623
vt 0.855283 0.379059
vt 0.807393 0.373896
vt 0.786567 0.180024
vt 0.873879 0.233095
vt 0.014156 0.254069
vt 0.031470 0.279313
vt 0.026803 0.315242
vt 0.000000 0.312659
vt 0.699857 0.856542
vt 0.709039 0.903758
vt 0.645205 0.887481
vt 0.653364 0.852713
vt 0.639794 0.342266
vt 0.602167 0.359395
vt 0.598601 0.309244
vt 0.731794 0.623600
vt 0.758606 0.623827
vt 0.758606 0.688865
vt 0.725960 0.689416
vt 0.688674 0.842648
vt 0.436318 0.863683
vt 0.452345 0.921244
vt 0.386482 0.913698
vt 0.407670 0.864749
vt 0.629175 0.290054
vt 0.611601 0.298828
vt 0.066347 0.159264
vt 0.038232 0.138893
vt 0.053052 0.032406
vt 0.635363 0.065604
vt 0.631873 0.181924
vt 0.596191 0.194208
vt 0.087793 0.000000
vt 0.386482 0.643438
vt 0.440899 0.638316
vt 0.450339 0.744966
vt 0.412338 0.758265
vt 0.599512 0.024560
vt 0.619950 0.708885
vt 0.591814 0.663166
vt 0.623370 0.638316
vt 0.555320 0.691285
vt 0.551712 0.638316
vt 0.639794 0.754832
vt 0.686662 0.746733
vt 0.455687 0.755780
vt 0.030163 0.149975
vt 0.058469 0.182719
vt 0.647620 0.732797
vt 0.725960 0.651432
vt 0.639794 0.623600
vt 0.091610 0.231742
vt 0.872489 0.182259
vt 0.957370 0.550135
vt 0.883302 0.588245
vt 0.876223 0.436087
vt 0.802997 0.395510
vt 0.882258 0.728043
vt 0.924069 0.731065
vt 0.831498 0.578974
vt 0.873133 0.577402
vt 0.127399 0.484148
vt 0.069100 0.484148
vt 0.075906 0.624971
vt 0.098676 0.624971
vt 0.480850 0.448915
vt 0.522464 0.458797
vt 0.490781 0.638317
vt 0.456103 0.630081
vt 0.556469 0.745491
vt 0.593485 0.752882
vt 0.592121 0.815738
vt 0.551712 0.805150
vt 0.599266 0.868144
vt 0.551712 0.861277
vt 0.880911 0.618868
vt 0.821665 0.620953
vt 0.943661 0.773723
vt 0.880911 0.769844
vt 0.999993 0.760248
vt 0.995749 0.778261
vt 0.765689 0.623594
vt 0.760419 0.609125
vt 0.239017 0.811564
vt 0.242293 0.779184
vt 0.256419 0.773311
vt 0.256419 0.820837
vt 0.599266 0.745491
vt 0.634854 0.745491
vt 0.634715 0.822743
vt 0.602069 0.826582
vt 0.105782 0.666275
vt 0.068799 0.666725
vt 0.167393 0.666725
vt 0.330811 0.638316
vt 0.604111 0.745491
vt 0.552892 0.737490
s 1
f 5/1/1 8/2/2 126/3/3 127/4/4
f 6/5/5 13/6/6 14/7/7 7/8/8
f 13/9/6 129/10/9 128/11/10 14/12/7
f 7/13/8 14/14/7 128/15/10 130/16/11
f 6/17/5 131/18/12 129/19/9 13/20/6
f 5/21/1 127/22/4 131/18/12 6/17/5
f 7/13/8 130/16/11 126/23/3 8/24/2
f 11/25/13 12/26/14 15/27/15 16/28/15
f 9/29/16 12/26/14 11/25/13 10/30/16
f 3/31/17 17/32/18 18/33/19 2/34/20
f 17/32/18 6/35/5 7/36/8 18/33/19
f 8/2/2 5/1/1 19/37/21 20/38/22
f 1/39/23 20/38/22 19/37/21 4/40/24
f 7/13/8 8/24/2 20/41/22 18/42/19
f 5/21/1 6/17/5 17/43/18 19/44/21
f 1/45/23 2/46/20 18/42/19
f 1/45/23 18/42/19 20/41/22
f 3/47/17 4/48/24 17/43/18
f 4/48/24 19/44/21 17/43/18
f 101/49/25 21/50/26 103/51/27
f 23/52/28 22/53/29 21/54/26
f 102/55/30 22/56/29 23/57/28 100/58/31
f 21/54/26 22/53/29 25/59/32 24/60/33
f 22/56/29 102/55/30 96/61/34 25/62/32
f 103/51/27 21/50/26 24/63/33 95/64/35
f 26/65/36 27/66/37 32/67/38 33/68/39
f 30/69/40 35/70/41 36/71/42 32/72/38
f 30/73/40 31/74/43 35/75/41
f 32/67/38 36/76/42 33/68/39
f 33/77/39 38/78/44 37/79/45 31/80/43
f 35/70/41 39/81/46 44/82/47 36/71/42
f 31/74/43 37/83/45 39/84/46 35/75/41
f 36/76/42 44/85/47 38/86/44 33/68/39
f 34/87/48 28/88/49 29/89/50
f 28/88/49 34/87/48 77/90/51
f 29/89/50 78/91/52 34/87/48
f 27/92/37 92/93/53 78/94/52 29/95/50
f 26/96/36 28/97/49 77/98/51 91/99/54
f 40/100/55 28/97/49 26/96/36
f 40/101/55 31/74/43 30/73/40 41/102/56
f 29/95/50 41/103/56 27/92/37
f 26/96/36 33/77/39 31/80/43 40/100/55
f 27/92/37 41/103/56 30/69/40 32/72/38
f 37/79/45 38/78/44 43/104/57 42/105/58
f 39/84/46 37/83/45 42/106/58 45/107/59
f 38/86/44 44/85/47 43/108/57
f 45/109/59 42/110/58 46/111/60 47/112/61
f 42/105/58 43/104/57 46/113/60
f 43/108/57 44/85/47 47/114/61 46/115/60
f 39/81/46 45/116/59 47/117/61 44/82/47
f 1/45/23 23/52/28 21/54/26 2/46/20
f 1/39/23 4/40/24 137/58/62 23/57/28
f 2/34/20 21/50/26 139/49/63 3/31/17
f 3/47/17 139/118/63 137/119/62 4/48/24
f 135/120/64 34/121/48 48/122/65 67/123/66
f 34/121/48 78/124/52 66/125/67 48/122/65
f 24/60/33 25/59/32 27/126/37 26/127/36
f 24/63/33 26/96/36 91/99/54 95/64/35
f 27/92/37 25/62/32 96/61/34 92/93/53
f 67/128/66 48/129/65 132/130/68 64/131/69
f 49/132/70 50/133/71 63/134/72 133/135/73
f 48/122/65 52/136/74 50/137/71 49/138/70
f 48/122/65 66/125/67 58/139/75 52/136/74
f 50/137/71 52/136/74 53/140/76 51/141/77
f 62/142/78 51/143/77 55/144/79
f 57/145/80 54/146/81 53/147/76
f 51/143/77 53/147/76 54/146/81 55/144/79
f 58/148/75 57/149/80 53/150/76 52/151/74
f 63/134/72 50/133/71 51/152/77 62/153/78
f 63/134/72 62/153/78 60/154/82 61/155/83
f 58/148/75 59/156/84 56/157/85 57/149/80
f 60/158/82 55/144/79 54/146/81 56/159/85
f 57/145/80 56/159/85 54/146/81
f 62/142/78 55/144/79 60/158/82
f 61/160/83 60/161/82 56/162/85 59/163/84
f 68/164/86 59/163/84 58/165/75 66/166/67
f 68/164/86 134/167/87 61/160/83 59/163/84
f 134/168/87 133/135/73 63/134/72 61/155/83
f 67/128/66 64/131/69 65/169/88 68/170/86
f 93/171/89 92/93/53 96/61/34 97/172/90
f 98/173/91 95/64/35 91/99/54 94/174/92
f 98/175/91 94/176/92 93/177/89 97/178/90
f 84/179/93 68/164/86 66/166/67 78/180/52
f 135/181/64 67/182/66 68/164/86 84/179/93
f 123/183/94 122/184/95 136/185/96 138/186/97
f 124/187/98 123/188/94 138/49/97 105/189/99
f 125/190/100 99/191/101 136/58/96 122/192/95
f 125/193/100 124/194/98 105/195/99 99/196/101
f 79/197/102 72/198/103 69/199/104 71/200/105
f 73/201/106 70/202/107 69/203/104 72/204/103
f 74/205/108 70/206/107 73/207/106
f 71/208/105 69/209/104 70/210/107 74/211/108
f 80/212/109 73/201/106 72/204/103
f 79/213/102 71/214/105 74/215/108 81/216/110
f 81/217/110 74/205/108 73/207/106 80/218/109
f 93/171/89 86/219/111 88/220/112 75/221/113
f 94/174/92 76/222/114 87/223/115 85/224/116
f 89/225/117 93/171/89 75/221/113
f 76/226/114 75/227/113 88/228/112 87/229/115
f 76/222/114 94/174/92 90/230/118
f 94/174/92 91/99/54 77/98/51 90/230/118
f 93/171/89 89/225/117 78/94/52 92/93/53
f 89/231/117 84/232/93 78/233/52
f 90/234/118 77/235/51 84/232/93
f 84/232/93 89/231/117 90/234/118
f 82/236/119 85/237/116 80/212/109 72/204/103
f 87/229/115 83/238/120 79/213/102 81/216/110
f 83/239/120 82/240/119 72/198/103 79/197/102
f 85/224/116 87/223/115 81/217/110 80/218/109
f 86/241/111 85/237/116 82/236/119
f 88/228/112 83/238/120 87/229/115
f 88/220/112 86/219/111 82/240/119 83/239/120
f 94/242/92 85/237/116 86/241/111 93/243/89
f 103/51/27 95/64/35 98/173/91 105/189/99
f 104/244/121 97/172/90 96/61/34 102/55/30
f 105/195/99 98/175/91 97/178/90 104/245/121
f 102/55/30 100/58/31 99/191/101 104/244/121
f 99/196/101 105/195/99 104/245/121
f 101/49/25 103/51/27 105/189/99
f 122/184/95 109/246/122 107/247/123
f 123/183/94 109/246/122 122/184/95
f 125/193/100 106/248/124 108/249/125
f 125/193/100 108/249/125 124/194/98
f 121/250/126 107/247/123 109/246/122 120/251/127
f 119/252/128 108/249/125 106/248/124 118/253/129
f 125/190/100 122/192/95 107/254/123 106/255/124
f 118/256/129 106/255/124 107/254/123 121/257/126
f 109/258/122 108/259/125 119/260/128 120/261/127
f 123/188/94 124/187/98 108/259/125 109/258/122
f 141/262/16 143/263/16 142/264/130 140/265/131
f 142/264/130 144/266/132 145/267/132 140/265/131
f 119/252/128 118/253/129 117/268/133 114/269/134
f 121/250/126 120/251/127 115/270/135 116/271/136
f 120/251/127 113/272/137 110/273/138 115/270/135
f 119/252/128 114/269/134 111/274/139 112/275/140
f 113/276/137 112/277/140 111/278/139 110/279/138
f 120/280/127 119/281/128 112/282/140 113/283/137
f 121/257/126 116/284/136 117/285/133 118/256/129
f 28/88/49 40/286/55 29/89/50
f 29/287/50 40/101/55 41/102/56
f 75/288/113 76/289/114 89/231/117
f 76/289/114 90/234/118 89/231/117
