# Blender 5.1.1
# www.blender.org
o HumanLow
v 0.204018 0.585980 -0.012714
v 0.182317 0.601477 0.102363
v 0.095652 0.601477 0.102363
v 0.073952 0.585980 -0.012714
v 0.145873 0.101878 -0.041803
v 0.130214 0.101878 0.060545
v 0.216925 0.101878 0.060545
v 0.201267 0.101878 -0.041803
v 0.281093 -0.003638 0.061525
v 0.128584 0.001012 -0.038395
v 0.132578 0.001012 0.114505
v 0.168233 0.005663 -0.029990
v 0.137877 0.042153 0.249172
v 0.216730 0.034050 0.235835
v 0.231377 -0.001025 0.224849
v 0.115763 -0.001025 0.242068
v 0.086958 0.549551 0.115117
v 0.191011 0.549551 0.115117
v 0.075994 0.446094 -0.058787
v 0.217823 0.446094 -0.058787
v 0.163228 1.074129 0.137850
v 0.163061 1.061983 -0.071234
v 0.192827 0.939277 -0.069293
v 0.134071 1.232386 0.113104
v 0.156011 1.232386 -0.039588
v 0.150715 1.456774 0.110231
v 0.166990 1.504943 -0.104881
v 0.129298 1.621634 0.090801
v 0.172348 1.627023 -0.075530
v 0.292920 1.288112 -0.068648
v 0.294348 1.261890 0.025875
v 0.224522 1.238198 -0.064175
v 0.216796 1.213177 0.033581
v 0.063203 1.664156 0.010681
v 0.312551 1.261717 -0.078929
v 0.243687 1.181918 -0.078929
v 0.348743 1.005957 0.056556
v 0.312077 0.975234 0.056556
v 0.351491 1.004101 -0.013116
v 0.237228 1.542835 0.067978
v 0.256866 1.547362 -0.064066
v 0.403226 0.892420 0.118543
v 0.287163 0.945350 0.087145
v 0.309371 0.943399 -0.026862
v 0.385931 0.862996 -0.041366
v 0.323792 0.830571 0.118543
v 0.320725 0.856594 -0.039569
v 0.069369 1.712631 0.010681
v 0.060363 1.695242 0.117183
v 0.087972 1.800795 0.119867
v 0.079111 1.917483 0.114259
v 0.087972 1.795755 -0.055406
v 0.079111 1.921374 -0.056769
v -0.000002 1.965068 -0.015152
v -0.000002 1.955331 0.103664
v -0.079111 1.921374 -0.056769
v -0.000002 1.921414 -0.098006
v -0.000002 1.771472 -0.116269
v -0.087972 1.795755 -0.055406
v -0.079111 1.917483 0.114259
v -0.087972 1.800795 0.119867
v -0.000002 1.898342 0.172222
v -0.000002 1.781039 0.186901
v -0.000002 1.685263 0.169948
v -0.060363 1.695242 0.117183
v -0.000002 1.694542 -0.069190
v -0.000002 1.667634 0.090502
v -0.069369 1.712631 0.010681
v -0.320725 0.856594 -0.039569
v -0.323792 0.830571 0.118543
v -0.385930 0.862996 -0.041366
v -0.309371 0.943399 -0.026862
v -0.287162 0.945350 0.087145
v -0.403225 0.892420 0.118543
v -0.256865 1.547362 -0.064066
v -0.237228 1.542835 0.067978
v -0.000002 1.617999 0.095863
v -0.000002 1.621071 -0.090806
v -0.351491 1.004101 -0.013116
v -0.312077 0.975234 0.056556
v -0.348743 1.005957 0.056556
v -0.243687 1.181918 -0.078929
v -0.312550 1.261717 -0.078929
v -0.063202 1.664156 0.010681
v -0.216796 1.213177 0.033581
v -0.224522 1.238198 -0.064175
v -0.294348 1.261890 0.025875
v -0.292920 1.288112 -0.068648
v -0.172347 1.627023 -0.075530
v -0.129298 1.621634 0.090801
v -0.000002 1.455858 0.150260
v -0.000002 1.520128 -0.142679
v -0.166990 1.504943 -0.104881
v -0.150715 1.456774 0.110231
v -0.000002 1.228824 0.147699
v -0.000002 1.228824 -0.082420
v -0.156011 1.232386 -0.039588
v -0.134071 1.232386 0.113104
v -0.192826 0.939277 -0.069293
v -0.000002 0.931916 -0.092766
v -0.000002 0.933496 0.136309
v -0.000002 1.035529 -0.129773
v -0.000002 1.042395 0.146343
v -0.163061 1.061983 -0.071234
v -0.163228 1.074129 0.137850
v -0.217823 0.446094 -0.058787
v -0.075994 0.446094 -0.058787
v -0.191011 0.549551 0.115117
v -0.086958 0.549551 0.115117
v -0.115763 -0.001025 0.242068
v -0.231377 -0.001025 0.224849
v -0.216730 0.034050 0.235835
v -0.137877 0.042153 0.249172
v -0.168234 0.005663 -0.029991
v -0.132578 0.001012 0.114505
v -0.128584 0.001012 -0.038395
v -0.281093 -0.003638 0.061525
v -0.201267 0.101878 -0.041803
v -0.216925 0.101878 0.060545
v -0.130214 0.101878 0.060545
v -0.145872 0.101878 -0.041803
v -0.073951 0.585980 -0.012714
v -0.095652 0.601477 0.102363
v -0.182317 0.601477 0.102363
v -0.204017 0.585980 -0.012714
v 0.281093 -0.003638 0.061525
v 0.128584 0.001012 -0.038395
v 0.231377 -0.001025 0.224849
v 0.115763 -0.001025 0.242068
v 0.168233 0.005663 -0.029990
v 0.132578 0.001012 0.114505
v 0.060363 1.695242 0.117183
v -0.000002 1.685263 0.169948
v -0.060363 1.695242 0.117183
v -0.000002 1.617999 0.095863
v -0.000002 0.931916 -0.092766
v -0.000002 0.931916 -0.092766
v -0.000002 0.933496 0.136309
v -0.000002 0.933496 0.136309
v -0.168234 0.005663 -0.029991
v -0.281093 -0.003638 0.061525
v -0.132578 0.001012 0.114505
v -0.128584 0.001012 -0.038395
v -0.115763 -0.001025 0.242068
v -0.231377 -0.001025 0.224849
vn -0.5770 -0.1895 -0.7944
vn 0.6996 -0.1812 -0.6912
vn 0.8982 -0.4349 0.0636
vn -0.5848 -0.2193 -0.7810
vn -0.8728 0.2440 0.4228
vn -0.4447 0.4045 0.7991
vn 0.6326 0.2804 0.7219
vn 0.8031 0.2410 0.5450
vn -0.8038 -0.0247 0.5944
vn 0.8887 -0.2346 0.3939
vn 0.7677 -0.0256 0.6402
vn -0.9938 0.1097 -0.0171
vn 0.0101 -0.9999 -0.0009
vn 0.0439 -0.9843 0.1710
vn 0.0056 -0.9997 -0.0235
vn 0.0598 -0.9658 0.2524
vn -0.6339 0.0356 0.7726
vn -0.6643 0.0495 0.7458
vn 0.6404 0.0958 0.7620
vn 0.6711 0.1356 0.7289
vn -0.7059 0.0273 -0.7078
vn 0.7005 0.1146 -0.7044
vn 0.8120 0.1059 -0.5740
vn -0.7717 -0.0499 -0.6340
vn -0.0000 -0.0917 0.9958
vn 0.7037 0.0722 0.7069
vn -0.0000 -0.0170 0.9999
vn 0.7910 -0.0373 -0.6107
vn 0.7574 0.1341 -0.6390
vn -0.0000 0.0232 -0.9997
vn -0.0000 -0.1387 -0.9903
vn 0.8523 0.0193 -0.5227
vn 0.7387 0.0450 0.6725
vn -0.0000 -0.0000 -1.0000
vn -0.0000 0.0363 0.9993
vn 0.3407 -0.0299 0.9397
vn 0.2201 0.0033 -0.9755
vn -0.7166 -0.1156 -0.6878
vn -0.7149 -0.2293 0.6605
vn 0.6913 0.3066 -0.6543
vn 0.6593 0.3383 -0.6715
vn -0.5318 -0.2439 -0.8110
vn 0.7623 0.1222 0.6355
vn -0.7143 0.3693 0.5944
vn 0.6566 0.3819 0.6504
vn 0.8089 0.1391 -0.5712
vn -0.6592 -0.0825 -0.7474
vn 0.7095 0.7023 0.0577
vn 0.3414 0.6623 0.6669
vn 0.4265 0.7535 -0.5004
vn -0.0000 0.5148 0.8573
vn -0.0000 0.5136 -0.8580
vn -0.0000 0.0739 -0.9973
vn -0.0000 0.1089 0.9940
vn 0.7270 0.3643 0.5820
vn 0.7889 0.3891 -0.4757
vn -0.7953 0.2920 0.5312
vn 0.7050 -0.1218 0.6986
vn 0.7235 -0.3353 -0.6035
vn -0.3698 -0.7338 0.5699
vn -0.3461 -0.6190 -0.7050
vn -0.6600 -0.3127 -0.6831
vn -0.5278 -0.2001 0.8254
vn -0.0000 -0.0246 0.9997
vn 0.9413 -0.3036 -0.1475
vn -0.0000 -0.8399 0.5428
vn -0.0000 -0.3200 -0.9474
vn 0.4082 -0.9127 0.0209
vn -0.0000 -0.9997 0.0229
vn 0.8543 -0.2087 0.4760
vn 0.8986 -0.0514 0.4357
vn -0.0000 -0.0619 0.9981
vn -0.0000 -0.2094 0.9778
vn 0.8681 -0.1511 -0.4728
vn -0.0000 -0.3063 -0.9519
vn 0.7471 0.5052 -0.4320
vn 0.7623 0.5052 0.4047
vn -0.0000 0.3916 0.9201
vn -0.0000 0.9483 0.3175
vn -0.0000 0.4988 -0.8667
vn -0.0000 0.9907 -0.1364
vn -0.7623 0.5052 0.4047
vn -0.8986 -0.0514 0.4357
vn -0.8681 -0.1511 -0.4728
vn -0.7471 0.5052 -0.4320
vn -0.9413 -0.3035 -0.1475
vn -0.8544 -0.2087 0.4760
vn -0.4082 -0.9127 0.0209
vn -0.2201 0.0033 -0.9755
vn -0.8523 0.0193 -0.5227
vn -0.7387 0.0450 0.6725
vn -0.3407 -0.0299 0.9397
vn -0.7095 0.7023 0.0577
vn 0.6339 0.0356 0.7726
vn 0.7717 -0.0499 -0.6340
vn 0.6600 -0.3127 -0.6831
vn 0.5278 -0.2001 0.8254
vn -0.6711 0.1356 0.7289
vn -0.7037 0.0722 0.7069
vn -0.8120 0.1059 -0.5740
vn -0.7910 -0.0373 -0.6107
vn -0.8089 0.1391 -0.5712
vn 0.6592 -0.0825 -0.7474
vn 0.3461 -0.6190 -0.7050
vn -0.7235 -0.3353 -0.6035
vn 0.7953 0.2920 0.5312
vn 0.3698 -0.7338 0.5699
vn -0.7050 -0.1218 0.6987
vn 0.7143 0.3693 0.5944
vn -0.6566 0.3819 0.6504
vn 0.7166 -0.1156 -0.6878
vn -0.6913 0.3066 -0.6543
vn -0.7889 0.3891 -0.4757
vn -0.7270 0.3643 0.5820
vn -0.7623 0.1222 0.6355
vn 0.7149 -0.2293 0.6605
vn -0.4265 0.7535 -0.5004
vn -0.3414 0.6623 0.6669
vn 0.5318 -0.2439 -0.8110
vn -0.6593 0.3383 -0.6715
vn -0.7574 0.1341 -0.6390
vn 0.6643 0.0495 0.7458
vn 0.7059 0.0273 -0.7078
vn -0.7005 0.1146 -0.7044
vn -0.6404 0.0958 0.7620
vn 0.5770 -0.1895 -0.7944
vn 0.8728 0.2440 0.4228
vn -0.8031 0.2410 0.5450
vn -0.6996 -0.1812 -0.6912
vn -0.0598 -0.9658 0.2524
vn -0.0101 -0.9999 -0.0009
vn -0.0439 -0.9843 0.1710
vn -0.0056 -0.9997 -0.0235
vn -0.8982 -0.4349 0.0636
vn -0.7677 -0.0256 0.6402
vn 0.9938 0.1097 -0.0171
vn 0.5848 -0.2193 -0.7810
vn 0.4447 0.4045 0.7991
vn 0.8038 -0.0247 0.5944
vn -0.8887 -0.2346 0.3939
vn -0.6326 0.2804 0.7219
vt 0.234693 0.972032
vt 0.234916 0.946395
vt 0.281127 0.909850
vt 0.281127 0.980437
vt 0.896038 0.900221
vt 0.892113 0.991526
vt 0.855991 0.987203
vt 0.855968 0.900221
vt 0.066023 0.949179
vt 0.046434 0.959622
vt 0.046434 0.906111
vt 0.062335 0.912721
vt 0.948118 0.805198
vt 0.919731 0.887426
vt 0.903058 0.882831
vt 0.903058 0.765377
vt 0.072617 0.859643
vt 0.119067 0.885063
vt 0.119676 0.943628
vt 0.099478 0.947258
vt 0.072866 0.812713
vt 0.119676 0.814300
vt 0.695075 0.930085
vt 0.739233 0.913508
vt 0.739233 0.966251
vt 0.692741 0.922441
vt 0.067538 0.762840
vt 0.054102 0.830144
vt 0.019529 0.714071
vt 0.072617 0.703676
vt 0.000000 0.790567
vt 0.072617 0.833314
vt 0.442490 0.471333
vt 0.446514 0.495725
vt 0.398356 0.495725
vt 0.402380 0.471333
vt 0.426494 0.700594
vt 0.386362 0.700594
vt 0.255827 0.703676
vt 0.240190 0.703676
vt 0.207849 0.545119
vt 0.263490 0.545119
vt 0.257100 0.479219
vt 0.206903 0.479219
vt 0.800596 0.652478
vt 0.753429 0.650140
vt 0.752190 0.491068
vt 0.834877 0.446260
vt 0.937079 0.383031
vt 0.890151 0.383489
vt 0.864733 0.176871
vt 0.945658 0.224280
vt 0.776372 0.427107
vt 0.830084 0.421854
vt 0.870276 0.152729
vt 0.924027 0.159714
vt 0.486761 0.319176
vt 0.411214 0.254304
vt 0.486761 0.269233
vt 0.757271 0.262538
vt 0.759070 0.205259
vt 0.855968 0.203839
vt 0.162676 0.274766
vt 0.238145 0.260926
vt 0.251921 0.317562
vt 0.172676 0.321612
vt 0.777119 0.127034
vt 0.847918 0.129690
vt 0.162676 0.184156
vt 0.234882 0.181327
vt 0.424709 0.180430
vt 0.486761 0.183214
vt 0.648165 0.683881
vt 0.744691 0.652290
vt 0.735963 0.776595
vt 0.692240 0.792395
vt 0.298246 0.156385
vt 0.307332 0.168863
vt 0.275460 0.205730
vt 0.266590 0.179321
vt 0.330077 0.859529
vt 0.373997 0.871001
vt 0.325354 0.872178
vt 0.744691 0.801769
vt 0.386422 0.186678
vt 0.342324 0.297281
vt 0.325354 0.283098
vt 0.350529 0.163937
vt 0.325354 0.286061
vt 0.305860 0.314485
vt 0.389664 0.990146
vt 0.357419 0.991557
vt 0.729326 0.913508
vt 0.689509 0.902427
vt 0.198880 0.782208
vt 0.157423 0.751507
vt 0.229931 0.733764
vt 0.154048 0.811268
vt 0.234693 0.813745
vt 0.239963 0.057212
vt 0.162676 0.051241
vt 0.162676 0.003172
vt 0.242443 0.000000
vt 0.417006 0.076747
vt 0.426918 0.000000
vt 0.486760 0.001845
vt 0.486760 0.078488
vt 0.376966 0.035626
vt 0.391841 0.739716
vt 0.330547 0.738943
vt 0.281560 0.036486
vt 0.752190 0.911765
vt 0.773548 0.917505
vt 0.790232 0.926093
vt 0.752190 0.971775
vt 0.583386 0.880473
vt 0.588202 0.848558
vt 0.645885 0.830232
vt 0.645885 0.905253
vt 0.154048 0.930881
vt 0.174864 0.895176
vt 0.165706 0.946532
vt 0.287664 0.984698
vt 0.281127 0.909850
vt 0.317849 0.912325
vt 0.317849 0.984642
vt 0.797548 0.982237
vt 0.215307 0.896180
vt 0.215307 0.970325
vt 0.149694 0.812713
vt 0.149694 0.880582
vt 0.119676 0.876321
vt 0.124069 0.835764
vt 0.855968 0.000000
vt 0.961848 0.000000
vt 0.583386 0.991645
vt 0.602884 0.951334
vt 0.625181 0.950896
vt 0.606294 0.988769
vt 0.583386 0.905253
vt 0.617521 0.914669
vt 0.752190 -0.000000
vt 0.850844 0.026266
vt 0.032106 0.870513
vt 0.000000 0.906111
vt 0.004168 0.857406
vt 0.032106 0.833314
vt 0.085395 0.806369
vt 0.072617 0.757729
vt 0.113333 0.769057
vt 0.113334 0.812713
vt 0.267980 0.902965
vt 0.236454 0.865496
vt 0.317495 0.861547
vt 0.317495 0.909850
vt 0.645327 0.830149
vt 0.610647 0.817172
vt 0.610647 0.775442
vt 0.639003 0.781592
vt 0.234693 0.807262
vt 0.313856 0.807482
vt 0.692741 0.959753
vt 0.648165 0.971466
vt 0.661175 0.936351
vt 0.961848 0.030266
vt 0.988410 0.039360
vt 0.969263 0.070565
vt 0.457347 0.896891
vt 0.457347 0.822784
vt 0.492684 0.832361
vt 0.492875 0.885058
vt 0.224946 0.854461
vt 0.155169 0.854461
vt 0.154048 0.817846
vt 0.212045 0.813745
vt 0.076718 0.703676
vt 0.113333 0.714421
vt 0.149947 0.703676
vt 0.154048 0.757729
vt 0.212045 0.895176
vt 0.154048 0.891074
vt 0.530448 0.895376
vt 0.530448 0.821268
vt 0.988410 0.000000
vt 0.692741 0.913508
vt 0.234693 0.758651
vt 0.237717 0.704609
vt 0.316783 0.703676
vt 0.315671 0.761872
vt 0.961848 0.124074
vt 0.968309 0.075204
vt 0.995972 0.070565
vt 0.995972 0.112305
vt 0.284226 0.799835
vt 0.234693 0.807262
vt 0.141270 0.806369
vt 0.060042 0.857406
vt 0.064210 0.906111
vt 0.085391 0.057212
vt 0.090472 0.181327
vt 0.548810 0.180430
vt 0.556513 0.076747
vt 0.655888 0.129990
vt 0.653369 0.026313
vt 0.752190 -0.000000
vt 0.726933 0.127200
vt 0.961848 0.132716
vt 0.982492 0.124074
vt 0.989194 0.159542
vt 0.961848 0.182064
vt 0.644360 0.961692
vt 0.625181 0.948810
vt 0.625181 0.905252
vt 0.644921 0.915797
vt 0.946168 0.535127
vt 0.892684 0.542332
vt 0.855968 0.383489
vt 0.961971 0.383489
vt 0.571139 0.471333
vt 0.531029 0.471333
vt 0.562305 0.254304
vt 0.079232 0.480694
vt 0.073433 0.317562
vt 0.138451 0.479219
vt 0.727929 0.426948
vt 0.673967 0.421848
vt 0.648165 0.203859
vt 0.747095 0.262421
vt 0.119676 0.880582
vt 0.145300 0.903633
vt 0.149694 0.944190
vt 0.119676 0.948451
vt 0.506647 0.948685
vt 0.457347 0.971838
vt 0.457347 0.897664
vt 0.497681 0.896891
vt 0.842906 0.971775
vt 0.797548 0.982237
vt 0.804863 0.926092
vt 0.640833 0.775442
vt 0.610647 0.775386
vt 0.610647 0.703070
vt 0.647370 0.700594
vt 0.518494 0.932613
vt 0.965081 0.936715
vt 0.903058 0.962133
vt 0.903058 0.887426
vt 0.960131 0.904817
vt 0.842906 0.911765
vt 0.821547 0.917504
vt 0.058764 0.179321
vt 0.027108 0.156385
vt 0.043795 0.036486
vt 0.596553 0.035626
vt 0.622990 0.163937
vt 0.587097 0.186678
vt 0.082911 0.000000
vt 0.391841 0.700620
vt 0.453374 0.700594
vt 0.452522 0.820898
vt 0.408502 0.831689
vt 0.546601 0.000000
vt 0.534180 0.780052
vt 0.502500 0.728573
vt 0.538030 0.700594
vt 0.461410 0.760234
vt 0.457347 0.700594
vt 0.752190 0.800970
vt 0.805016 0.791535
vt 0.807195 0.900373
vt 0.767453 0.911765
vt 0.457347 0.833435
vt 0.424066 0.952004
vt 0.391841 0.950125
vt 0.018022 0.168863
vt 0.049894 0.205730
vt 0.019494 0.314485
vt 0.000000 0.286061
vt 0.648165 0.283098
vt 0.631195 0.297281
vt 0.761017 0.775971
vt 0.849291 0.683539
vt 0.752190 0.652478
vt 0.087209 0.260926
vt 0.744945 0.205426
vt 0.951846 0.559343
vt 0.870986 0.606835
vt 0.752190 0.490837
vt 0.669271 0.446168
vt 0.878488 0.764758
vt 0.925708 0.765377
vt 0.703579 0.652290
vt 0.750463 0.650192
vt 0.137506 0.545119
vt 0.073135 0.544925
vt 0.069527 0.703676
vt 0.105164 0.703676
vt 0.527005 0.495725
vt 0.575163 0.495725
vt 0.587157 0.700594
vt 0.547025 0.700594
vt 0.610647 0.787485
vt 0.538030 0.830232
vt 0.543110 0.759759
vt 0.556545 0.827062
vt 0.538030 0.700594
vt 0.591119 0.710989
vt 0.116776 0.963834
vt 0.119110 0.956190
vt 0.072617 1.000000
vt 0.072617 0.947258
vt 0.902921 0.765377
vt 0.903058 0.812602
vt 0.856688 0.838051
vt 0.855968 0.767268
vt 0.876381 0.900221
vt 0.855968 0.896942
vt 0.538030 0.869473
vt 0.583386 0.830232
vt 0.583386 0.946567
vt 0.566869 0.951467
vt 0.961848 0.225133
vt 0.965536 0.188675
vt 0.981438 0.182064
vt 0.981438 0.235576
vt 0.948118 0.765377
vt 0.988189 0.765377
vt 0.988033 0.852359
vt 0.951274 0.856682
vt 0.046434 0.968293
vt 0.000000 0.976698
vt -0.000000 0.906111
vt 0.046211 0.942656
vt 0.154048 0.703676
vt 0.325354 0.700594
vt 0.516346 0.821268
vt 0.458675 0.812259
s 1
f 5/1/1 8/2/2 126/3/3 127/4/4
f 6/5/5 13/6/6 14/7/7 7/8/8
f 13/9/6 129/10/9 128/11/10 14/12/7
f 7/13/8 14/14/7 128/15/10 130/16/11
f 6/17/5 131/18/12 129/19/9 13/20/6
f 5/21/1 127/22/4 131/18/12 6/17/5
f 7/23/8 130/24/11 126/25/3 8/26/2
f 11/27/13 12/28/14 15/29/15 16/30/15
f 9/31/16 12/28/14 11/27/13 10/32/16
f 3/33/17 17/34/18 18/35/19 2/36/20
f 17/34/18 6/37/5 7/38/8 18/35/19
f 8/39/2 5/40/1 19/41/21 20/42/22
f 1/43/23 20/42/22 19/41/21 4/44/24
f 7/45/8 8/46/2 20/47/22 18/48/19
f 5/49/1 6/50/5 17/51/18 19/52/21
f 1/53/23 2/54/20 18/48/19
f 1/53/23 18/48/19 20/47/22
f 3/55/17 4/56/24 17/51/18
f 4/56/24 19/52/21 17/51/18
f 101/57/25 21/58/26 103/59/27
f 23/60/28 22/61/29 21/62/26
f 102/63/30 22/64/29 23/65/28 100/66/31
f 21/62/26 22/61/29 25/67/32 24/68/33
f 22/64/29 102/63/30 96/69/34 25/70/32
f 103/59/27 21/58/26 24/71/33 95/72/35
f 26/73/36 27/74/37 32/75/38 33/76/39
f 30/77/40 35/78/41 36/79/42 32/80/38
f 30/81/40 31/82/43 35/83/41
f 32/75/38 36/84/42 33/76/39
f 33/85/39 38/86/44 37/87/45 31/88/43
f 35/78/41 39/89/46 44/90/47 36/79/42
f 31/82/43 37/91/45 39/92/46 35/83/41
f 36/84/42 44/93/47 38/94/44 33/76/39
f 34/95/48 28/96/49 29/97/50
f 28/96/49 34/95/48 77/98/51
f 29/97/50 78/99/52 34/95/48
f 27/100/37 92/101/53 78/102/52 29/103/50
f 26/104/36 28/105/49 77/106/51 91/107/54
f 40/108/55 28/105/49 26/104/36
f 40/109/55 31/82/43 30/81/40 41/110/56
f 29/103/50 41/111/56 27/100/37
f 26/104/36 33/85/39 31/88/43 40/108/55
f 27/100/37 41/111/56 30/77/40 32/80/38
f 37/112/45 38/113/44 43/114/57 42/115/58
f 39/116/46 37/117/45 42/118/58 45/119/59
f 38/120/44 44/121/47 43/122/57
f 45/123/59 42/124/58 46/125/60 47/126/61
f 42/115/58 43/114/57 46/127/60
f 43/122/57 44/121/47 47/128/61 46/129/60
f 39/130/46 45/131/59 47/132/61 44/133/47
f 1/53/23 23/60/28 21/62/26 2/54/20
f 1/43/23 4/44/24 137/66/62 23/65/28
f 2/36/20 21/58/26 139/57/63 3/33/17
f 3/55/17 139/134/63 137/135/62 4/56/24
f 135/136/64 34/137/48 48/138/65 67/139/66
f 34/137/48 78/140/52 66/141/67 48/138/65
f 24/68/33 25/67/32 27/142/37 26/143/36
f 24/71/33 26/104/36 91/107/54 95/72/35
f 27/100/37 25/70/32 96/69/34 92/101/53
f 67/144/66 48/145/65 132/146/68 64/147/69
f 49/148/70 50/149/71 63/150/72 133/151/73
f 48/152/65 52/153/74 50/154/71 49/155/70
f 48/156/65 66/157/67 58/158/75 52/159/74
f 50/154/71 52/153/74 53/160/76 51/161/77
f 62/162/78 51/163/77 55/164/79
f 57/165/80 54/166/81 53/167/76
f 51/168/77 53/169/76 54/170/81 55/171/79
f 58/172/75 57/173/80 53/174/76 52/175/74
f 63/150/72 50/149/71 51/176/77 62/177/78
f 63/150/72 62/177/78 60/178/82 61/179/83
f 58/172/75 59/180/84 56/181/85 57/173/80
f 60/182/82 55/171/79 54/170/81 56/183/85
f 57/165/80 56/184/85 54/166/81
f 62/162/78 55/164/79 60/185/82
f 61/186/83 60/187/82 56/188/85 59/189/84
f 68/190/86 59/191/84 58/192/75 66/193/67
f 68/194/86 134/195/87 61/186/83 59/189/84
f 134/196/87 133/151/73 63/150/72 61/179/83
f 67/144/66 64/147/69 65/197/88 68/198/86
f 93/199/89 92/101/53 96/69/34 97/200/90
f 98/201/91 95/72/35 91/107/54 94/202/92
f 98/203/91 94/204/92 93/205/89 97/206/90
f 84/207/93 68/208/86 66/209/67 78/210/52
f 135/211/64 67/212/66 68/213/86 84/214/93
f 123/215/94 122/216/95 136/217/96 138/218/97
f 124/219/98 123/220/94 138/57/97 105/221/99
f 125/222/100 99/223/101 136/66/96 122/224/95
f 125/225/100 124/226/98 105/227/99 99/228/101
f 79/229/102 72/230/103 69/231/104 71/232/105
f 73/233/106 70/234/107 69/235/104 72/236/103
f 74/237/108 70/238/107 73/239/106
f 71/240/105 69/241/104 70/242/107 74/243/108
f 80/244/109 73/233/106 72/236/103
f 79/245/102 71/246/105 74/247/108 81/248/110
f 81/249/110 74/237/108 73/239/106 80/250/109
f 93/199/89 86/251/111 88/252/112 75/253/113
f 94/202/92 76/254/114 87/255/115 85/256/116
f 89/257/117 93/199/89 75/253/113
f 76/258/114 75/259/113 88/260/112 87/261/115
f 76/254/114 94/202/92 90/262/118
f 94/202/92 91/107/54 77/106/51 90/262/118
f 93/199/89 89/257/117 78/102/52 92/101/53
f 89/263/117 84/264/93 78/265/52
f 90/266/118 77/267/51 84/264/93
f 84/264/93 89/263/117 90/266/118
f 82/268/119 85/269/116 80/270/109 72/271/103
f 87/261/115 83/272/120 79/273/102 81/274/110
f 83/275/120 82/276/119 72/277/103 79/278/102
f 85/256/116 87/255/115 81/279/110 80/280/109
f 86/281/111 85/269/116 82/268/119
f 88/260/112 83/272/120 87/261/115
f 88/252/112 86/251/111 82/276/119 83/275/120
f 94/282/92 85/269/116 86/281/111 93/283/89
f 103/59/27 95/72/35 98/201/91 105/221/99
f 104/284/121 97/200/90 96/69/34 102/63/30
f 105/227/99 98/203/91 97/206/90 104/285/121
f 102/63/30 100/66/31 99/223/101 104/284/121
f 99/228/101 105/227/99 104/285/121
f 101/57/25 103/59/27 105/221/99
f 122/216/95 109/286/122 107/287/123
f 123/215/94 109/286/122 122/216/95
f 125/225/100 106/288/124 108/289/125
f 125/225/100 108/289/125 124/226/98
f 121/290/126 107/287/123 109/286/122 120/291/127
f 119/292/128 108/289/125 106/288/124 118/293/129
f 125/222/100 122/224/95 107/294/123 106/295/124
f 118/296/129 106/295/124 107/294/123 121/297/126
f 109/298/122 108/299/125 119/300/128 120/301/127
f 123/220/94 124/219/98 108/299/125 109/298/122
f 141/302/130 143/303/130 142/304/131 140/305/132
f 142/304/131 144/306/133 145/307/133 140/305/132
f 119/308/128 118/309/129 117/310/134 114/311/135
f 121/312/126 120/313/127 115/314/136 116/315/137
f 120/313/127 113/316/138 110/317/139 115/314/136
f 119/318/128 114/319/135 111/320/140 112/321/141
f 113/322/138 112/323/141 111/324/140 110/325/139
f 120/326/127 119/327/128 112/328/141 113/329/138
f 121/330/126 116/331/137 117/332/134 118/333/129
f 28/96/49 40/334/55 29/97/50
f 29/335/50 40/109/55 41/110/56
f 75/336/113 76/337/114 89/263/117
f 76/337/114 90/266/118 89/263/117
