# Blender 5.1.2
# www.blender.org
mtllib sala1.mtl
o Cubo
v -8.194043 -19.635128 -9.012207
v -8.194043 -11.635128 -9.012207
v -8.194043 -19.635128 -11.012207
v -8.194043 -11.635128 -11.012207
v 11.805957 -19.635128 -9.012207
v 11.805957 -11.635128 -9.012207
v 11.805957 -19.635128 -11.012207
v 11.805957 -11.635128 -11.012207
vn -1.0000 -0.0000 -0.0000
vn -0.0000 -0.0000 -1.0000
vn 1.0000 -0.0000 -0.0000
vn -0.0000 -0.0000 1.0000
vn -0.0000 -1.0000 -0.0000
vn -0.0000 1.0000 -0.0000
vt 0.375000 0.000000
vt 0.625000 0.000000
vt 0.625000 0.250000
vt 0.375000 0.250000
vt 0.625000 0.500000
vt 0.375000 0.500000
vt 0.625000 0.750000
vt 0.375000 0.750000
vt 0.625000 1.000000
vt 0.375000 1.000000
vt 0.125000 0.500000
vt 0.125000 0.750000
vt 0.875000 0.500000
vt 0.875000 0.750000
s 0
f 1/1/1 2/2/1 4/3/1 3/4/1
f 3/4/2 4/3/2 8/5/2 7/6/2
f 7/6/3 8/5/3 6/7/3 5/8/3
f 5/8/4 6/7/4 2/9/4 1/10/4
f 3/11/5 7/6/5 5/8/5 1/12/5
f 8/5/6 4/13/6 2/14/6 6/7/6
o Cubo.001
v -7.298670 -10.305709 10.066124
v -7.298670 -2.305709 10.066124
v -9.298671 -10.305709 10.066124
v -9.298671 -2.305709 10.066124
v -7.298671 -10.305709 -9.933876
v -7.298671 -2.305709 -9.933876
v -9.298672 -10.305709 -9.933876
v -9.298672 -2.305709 -9.933876
vn -0.0000 -0.0000 1.0000
vn -1.0000 -0.0000 -0.0000
vn -0.0000 -0.0000 -1.0000
vn 1.0000 -0.0000 -0.0000
vn -0.0000 -1.0000 -0.0000
vn -0.0000 1.0000 -0.0000
vt 0.375000 0.000000
vt 0.625000 0.000000
vt 0.625000 0.250000
vt 0.375000 0.250000
vt 0.625000 0.500000
vt 0.375000 0.500000
vt 0.625000 0.750000
vt 0.375000 0.750000
vt 0.625000 1.000000
vt 0.375000 1.000000
vt 0.125000 0.500000
vt 0.125000 0.750000
vt 0.875000 0.500000
vt 0.875000 0.750000
s 0
f 9/15/7 10/16/7 12/17/7 11/18/7
f 11/18/8 12/17/8 16/19/8 15/20/8
f 15/20/9 16/19/9 14/21/9 13/22/9
f 13/22/10 14/21/10 10/23/10 9/24/10
f 11/25/11 15/20/11 13/22/11 9/26/11
f 16/19/12 12/27/12 10/28/12 14/21/12
o Cubo.002
v -8.186266 -19.635128 11.114007
v -8.186266 -11.635128 11.114007
v -8.186266 -19.635128 9.114007
v -8.186266 -11.635128 9.114007
v 11.813734 -19.635128 11.114007
v 11.813734 -11.635128 11.114007
v 11.813734 -19.635128 9.114007
v 11.813734 -11.635128 9.114007
vn -1.0000 -0.0000 -0.0000
vn -0.0000 -0.0000 -1.0000
vn 1.0000 -0.0000 -0.0000
vn -0.0000 -0.0000 1.0000
vn -0.0000 -1.0000 -0.0000
vn -0.0000 1.0000 -0.0000
vt 0.375000 0.000000
vt 0.625000 0.000000
vt 0.625000 0.250000
vt 0.375000 0.250000
vt 0.625000 0.500000
vt 0.375000 0.500000
vt 0.625000 0.750000
vt 0.375000 0.750000
vt 0.625000 1.000000
vt 0.375000 1.000000
vt 0.125000 0.500000
vt 0.125000 0.750000
vt 0.875000 0.500000
vt 0.875000 0.750000
s 0
f 17/29/13 18/30/13 20/31/13 19/32/13
f 19/32/14 20/31/14 24/33/14 23/34/14
f 23/34/15 24/33/15 22/35/15 21/36/15
f 21/36/16 22/35/16 18/37/16 17/38/16
f 19/39/17 23/34/17 21/36/17 17/40/17
f 24/33/18 20/41/18 18/42/18 22/35/18
o Cubo.003
v 12.887880 -10.305709 10.066124
v 12.887880 -2.305709 10.066124
v 10.887879 -10.305709 10.066124
v 10.887879 -2.305709 10.066124
v 12.887879 -10.305709 -9.933876
v 12.887879 -2.305709 -9.933876
v 10.887878 -10.305709 -9.933876
v 10.887878 -2.305709 -9.933876
vn -0.0000 -0.0000 1.0000
vn -1.0000 -0.0000 -0.0000
vn -0.0000 -0.0000 -1.0000
vn 1.0000 -0.0000 -0.0000
vn -0.0000 -1.0000 -0.0000
vn -0.0000 1.0000 -0.0000
vt 0.375000 0.000000
vt 0.625000 0.000000
vt 0.625000 0.250000
vt 0.375000 0.250000
vt 0.625000 0.500000
vt 0.375000 0.500000
vt 0.625000 0.750000
vt 0.375000 0.750000
vt 0.625000 1.000000
vt 0.375000 1.000000
vt 0.125000 0.500000
vt 0.125000 0.750000
vt 0.875000 0.500000
vt 0.875000 0.750000
s 0
f 25/43/19 26/44/19 28/45/19 27/46/19
f 27/46/20 28/45/20 32/47/20 31/48/20
f 31/48/21 32/47/21 30/49/21 29/50/21
f 29/50/22 30/49/22 26/51/22 25/52/22
f 27/53/23 31/48/23 29/50/23 25/54/23
f 32/47/24 28/55/24 26/56/24 30/49/24
o Cubo.004
v -0.198499 235.518677 9.910945
v -0.198499 240.518677 9.910945
v -0.198499 235.518677 9.710944
v -0.198499 240.518677 9.710944
v 1.801501 235.518677 9.910945
v 1.801501 240.518677 9.910945
v 1.801501 235.518677 9.710944
v 1.801501 240.518677 9.710944
vn -1.0000 -0.0000 -0.0000
vn -0.0000 -0.0000 -1.0000
vn 1.0000 -0.0000 -0.0000
vn -0.0000 -0.0000 1.0000
vn -0.0000 -1.0000 -0.0000
vn -0.0000 1.0000 -0.0000
vt 0.375000 0.000000
vt 0.625000 0.000000
vt 0.625000 0.250000
vt 0.375000 0.250000
vt 0.625000 0.500000
vt 0.375000 0.500000
vt 0.625000 0.750000
vt 0.375000 0.750000
vt 0.625000 1.000000
vt 0.375000 1.000000
vt 0.125000 0.500000
vt 0.125000 0.750000
vt 0.875000 0.500000
vt 0.875000 0.750000
s 0
f 33/57/25 34/58/25 36/59/25 35/60/25
f 35/60/26 36/59/26 40/61/26 39/62/26
f 39/62/27 40/61/27 38/63/27 37/64/27
f 37/64/28 38/63/28 34/65/28 33/66/28
f 35/67/29 39/62/29 37/64/29 33/68/29
f 40/61/30 36/69/30 34/70/30 38/63/30
o Plano.001
v -8.156343 229.912628 9.964300
v 11.843657 229.912628 9.964300
v -8.156343 229.912628 -10.035700
v 11.843657 229.912628 -10.035700
vn -0.0000 1.0000 -0.0000
vt 0.000000 0.000000
vt 1.000000 0.000000
vt 1.000000 1.000000
vt 0.000000 1.000000
s 0
usemtl Material
f 41/71/31 42/72/31 44/73/31 43/74/31
o Plano.002
v -8.191202 285.091797 10.021401
v 11.808798 285.091797 10.021401
v -8.191202 285.091797 -9.978599
v 11.808798 285.091797 -9.978599
vn -0.0000 1.0000 -0.0000
vt 0.000000 0.000000
vt 1.000000 0.000000
vt 1.000000 1.000000
vt 0.000000 1.000000
s 0
f 45/75/32 46/76/32 48/77/32 47/78/32
o Cubo.005
v 7.928104 235.486664 -9.354814
v 7.928104 240.486664 -9.354814
v 7.928104 235.486664 -9.654813
v 7.928104 240.486664 -9.654813
v 9.928104 235.486664 -9.354814
v 9.928104 240.486664 -9.354814
v 9.928104 235.486664 -9.654813
v 9.928104 240.486664 -9.654813
vn -1.0000 -0.0000 -0.0000
vn -0.0000 -0.0000 -1.0000
vn 1.0000 -0.0000 -0.0000
vn -0.0000 -0.0000 1.0000
vn -0.0000 -1.0000 -0.0000
vn -0.0000 1.0000 -0.0000
vt 0.375000 0.000000
vt 0.625000 0.000000
vt 0.625000 0.250000
vt 0.375000 0.250000
vt 0.625000 0.500000
vt 0.375000 0.500000
vt 0.625000 0.750000
vt 0.375000 0.750000
vt 0.625000 1.000000
vt 0.375000 1.000000
vt 0.125000 0.500000
vt 0.125000 0.750000
vt 0.875000 0.500000
vt 0.875000 0.750000
s 0
f 49/79/33 50/80/33 52/81/33 51/82/33
f 51/82/34 52/81/34 56/83/34 55/84/34
f 55/84/35 56/83/35 54/85/35 53/86/35
f 53/86/36 54/85/36 50/87/36 49/88/36
f 51/89/37 55/84/37 53/86/37 49/90/37
f 56/83/38 52/91/38 50/92/38 54/85/38
o Cubo.006
v -8.105232 227.521500 -4.037015
v -8.105232 231.521500 -4.037015
v -8.105232 227.521500 -4.237015
v -8.105232 231.521500 -4.237015
v -4.105232 227.521500 -4.037015
v -4.105232 231.521500 -4.037015
v -4.105232 227.521500 -4.237015
v -4.105232 231.521500 -4.237015
vn -1.0000 -0.0000 -0.0000
vn -0.0000 -0.0000 -1.0000
vn 1.0000 -0.0000 -0.0000
vn -0.0000 -0.0000 1.0000
vn -0.0000 -1.0000 -0.0000
vn -0.0000 1.0000 -0.0000
vt 0.375000 0.000000
vt 0.625000 0.000000
vt 0.625000 0.250000
vt 0.375000 0.250000
vt 0.625000 0.500000
vt 0.375000 0.500000
vt 0.625000 0.750000
vt 0.375000 0.750000
vt 0.625000 1.000000
vt 0.375000 1.000000
vt 0.125000 0.500000
vt 0.125000 0.750000
vt 0.875000 0.500000
vt 0.875000 0.750000
s 0
f 57/93/39 58/94/39 60/95/39 59/96/39
f 59/96/40 60/95/40 64/97/40 63/98/40
f 63/98/41 64/97/41 62/99/41 61/100/41
f 61/100/42 62/99/42 58/101/42 57/102/42
f 59/103/43 63/98/43 61/100/43 57/104/43
f 64/97/44 60/105/44 58/106/44 62/99/44
o Cilindro
v 10.536859 237.936661 -6.310324
v 10.536859 238.036667 -6.310324
v 10.634404 237.936661 -6.300716
v 10.634404 238.036667 -6.300716
v 10.728200 237.936661 -6.272264
v 10.728200 238.036667 -6.272264
v 10.814644 237.936661 -6.226058
v 10.814644 238.036667 -6.226058
v 10.890412 237.936661 -6.163877
v 10.890412 238.036667 -6.163877
v 10.952594 237.936661 -6.088109
v 10.952594 238.036667 -6.088109
v 10.998798 237.936661 -6.001666
v 10.998798 238.036667 -6.001666
v 11.027251 237.936661 -5.907869
v 11.027251 238.036667 -5.907869
v 11.036859 237.936661 -5.810324
v 11.036859 238.036667 -5.810324
v 11.027251 237.936661 -5.712779
v 11.027251 238.036667 -5.712779
v 10.998798 237.936661 -5.618982
v 10.998798 238.036667 -5.618982
v 10.952594 237.936661 -5.532538
v 10.952594 238.036667 -5.532538
v 10.890412 237.936661 -5.456770
v 10.890412 238.036667 -5.456770
v 10.814644 237.936661 -5.394589
v 10.814644 238.036667 -5.394589
v 10.728200 237.936661 -5.348384
v 10.728200 238.036667 -5.348384
v 10.634404 237.936661 -5.319931
v 10.634404 238.036667 -5.319931
v 10.536859 237.936661 -5.310324
v 10.536859 238.036667 -5.310324
v 10.439313 237.936661 -5.319931
v 10.439313 238.036667 -5.319931
v 10.345517 237.936661 -5.348384
v 10.345517 238.036667 -5.348384
v 10.259073 237.936661 -5.394589
v 10.259073 238.036667 -5.394589
v 10.183305 237.936661 -5.456770
v 10.183305 238.036667 -5.456770
v 10.121123 237.936661 -5.532538
v 10.121123 238.036667 -5.532538
v 10.074919 237.936661 -5.618982
v 10.074919 238.036667 -5.618982
v 10.046466 237.936661 -5.712779
v 10.046466 238.036667 -5.712779
v 10.036859 237.936661 -5.810324
v 10.036859 238.036667 -5.810324
v 10.046466 237.936661 -5.907869
v 10.046466 238.036667 -5.907869
v 10.074919 237.936661 -6.001666
v 10.074919 238.036667 -6.001666
v 10.121123 237.936661 -6.088109
v 10.121123 238.036667 -6.088109
v 10.183305 237.936661 -6.163877
v 10.183305 238.036667 -6.163877
v 10.259073 237.936661 -6.226058
v 10.259073 238.036667 -6.226058
v 10.345517 237.936661 -6.272264
v 10.345517 238.036667 -6.272264
v 10.439313 237.936661 -6.300716
v 10.439313 238.036667 -6.300716
vn 0.0980 -0.0000 -0.9952
vn 0.2903 -0.0000 -0.9569
vn 0.4714 -0.0000 -0.8819
vn 0.6344 -0.0000 -0.7730
vn 0.7730 -0.0000 -0.6344
vn 0.8819 -0.0000 -0.4714
vn 0.9569 -0.0000 -0.2903
vn 0.9952 -0.0000 -0.0980
vn 0.9952 -0.0000 0.0980
vn 0.9569 -0.0000 0.2903
vn 0.8819 -0.0000 0.4714
vn 0.7730 -0.0000 0.6344
vn 0.6344 -0.0000 0.7730
vn 0.4714 -0.0000 0.8819
vn 0.2903 -0.0000 0.9569
vn 0.0980 -0.0000 0.9952
vn -0.0980 -0.0000 0.9952
vn -0.2903 -0.0000 0.9569
vn -0.4714 -0.0000 0.8819
vn -0.6344 -0.0000 0.7730
vn -0.7730 -0.0000 0.6344
vn -0.8819 -0.0000 0.4714
vn -0.9569 -0.0000 0.2903
vn -0.9952 -0.0000 0.0980
vn -0.9952 -0.0000 -0.0980
vn -0.9569 -0.0000 -0.2903
vn -0.8819 -0.0000 -0.4714
vn -0.7730 -0.0000 -0.6344
vn -0.6344 -0.0000 -0.7730
vn -0.4714 -0.0000 -0.8819
vn -0.0000 1.0000 -0.0000
vn -0.2903 -0.0000 -0.9569
vn -0.0980 -0.0000 -0.9952
vn -0.0000 -1.0000 -0.0000
vt 1.000000 0.500000
vt 1.000000 1.000000
vt 0.968750 1.000000
vt 0.968750 0.500000
vt 0.937500 1.000000
vt 0.937500 0.500000
vt 0.906250 1.000000
vt 0.906250 0.500000
vt 0.875000 1.000000
vt 0.875000 0.500000
vt 0.843750 1.000000
vt 0.843750 0.500000
vt 0.812500 1.000000
vt 0.812500 0.500000
vt 0.781250 1.000000
vt 0.781250 0.500000
vt 0.750000 1.000000
vt 0.750000 0.500000
vt 0.718750 1.000000
vt 0.718750 0.500000
vt 0.687500 1.000000
vt 0.687500 0.500000
vt 0.656250 1.000000
vt 0.656250 0.500000
vt 0.625000 1.000000
vt 0.625000 0.500000
vt 0.593750 1.000000
vt 0.593750 0.500000
vt 0.562500 1.000000
vt 0.562500 0.500000
vt 0.531250 1.000000
vt 0.531250 0.500000
vt 0.500000 1.000000
vt 0.500000 0.500000
vt 0.468750 1.000000
vt 0.468750 0.500000
vt 0.437500 1.000000
vt 0.437500 0.500000
vt 0.406250 1.000000
vt 0.406250 0.500000
vt 0.375000 1.000000
vt 0.375000 0.500000
vt 0.343750 1.000000
vt 0.343750 0.500000
vt 0.312500 1.000000
vt 0.312500 0.500000
vt 0.281250 1.000000
vt 0.281250 0.500000
vt 0.250000 1.000000
vt 0.250000 0.500000
vt 0.218750 1.000000
vt 0.218750 0.500000
vt 0.187500 1.000000
vt 0.187500 0.500000
vt 0.156250 1.000000
vt 0.156250 0.500000
vt 0.125000 1.000000
vt 0.125000 0.500000
vt 0.093750 1.000000
vt 0.093750 0.500000
vt 0.062500 1.000000
vt 0.062500 0.500000
vt 0.296822 0.485388
vt 0.250000 0.490000
vt 0.203178 0.485388
vt 0.158156 0.471731
vt 0.116663 0.449553
vt 0.080294 0.419706
vt 0.050447 0.383337
vt 0.028269 0.341844
vt 0.014612 0.296822
vt 0.010000 0.250000
vt 0.014612 0.203178
vt 0.028269 0.158156
vt 0.050447 0.116663
vt 0.080294 0.080294
vt 0.116663 0.050447
vt 0.158156 0.028269
vt 0.203178 0.014612
vt 0.250000 0.010000
vt 0.296822 0.014612
vt 0.341844 0.028269
vt 0.383337 0.050447
vt 0.419706 0.080294
vt 0.449553 0.116663
vt 0.471731 0.158156
vt 0.485388 0.203178
vt 0.490000 0.250000
vt 0.485388 0.296822
vt 0.471731 0.341844
vt 0.449553 0.383337
vt 0.419706 0.419706
vt 0.383337 0.449553
vt 0.341844 0.471731
vt 0.031250 1.000000
vt 0.031250 0.500000
vt 0.000000 1.000000
vt 0.000000 0.500000
vt 0.750000 0.490000
vt 0.796822 0.485388
vt 0.841844 0.471731
vt 0.883337 0.449553
vt 0.919706 0.419706
vt 0.949553 0.383337
vt 0.971731 0.341844
vt 0.985388 0.296822
vt 0.990000 0.250000
vt 0.985388 0.203178
vt 0.971731 0.158156
vt 0.949553 0.116663
vt 0.919706 0.080294
vt 0.883337 0.050447
vt 0.841844 0.028269
vt 0.796822 0.014612
vt 0.750000 0.010000
vt 0.703178 0.014612
vt 0.658156 0.028269
vt 0.616663 0.050447
vt 0.580294 0.080294
vt 0.550447 0.116663
vt 0.528269 0.158156
vt 0.514612 0.203178
vt 0.510000 0.250000
vt 0.514612 0.296822
vt 0.528269 0.341844
vt 0.550447 0.383337
vt 0.580294 0.419706
vt 0.616663 0.449553
vt 0.658156 0.471731
vt 0.703178 0.485388
s 0
f 65/107/45 66/108/45 68/109/45 67/110/45
f 67/110/46 68/109/46 70/111/46 69/112/46
f 69/112/47 70/111/47 72/113/47 71/114/47
f 71/114/48 72/113/48 74/115/48 73/116/48
f 73/116/49 74/115/49 76/117/49 75/118/49
f 75/118/50 76/117/50 78/119/50 77/120/50
f 77/120/51 78/119/51 80/121/51 79/122/51
f 79/122/52 80/121/52 82/123/52 81/124/52
f 81/124/53 82/123/53 84/125/53 83/126/53
f 83/126/54 84/125/54 86/127/54 85/128/54
f 85/128/55 86/127/55 88/129/55 87/130/55
f 87/130/56 88/129/56 90/131/56 89/132/56
f 89/132/57 90/131/57 92/133/57 91/134/57
f 91/134/58 92/133/58 94/135/58 93/136/58
f 93/136/59 94/135/59 96/137/59 95/138/59
f 95/138/60 96/137/60 98/139/60 97/140/60
f 97/140/61 98/139/61 100/141/61 99/142/61
f 99/142/62 100/141/62 102/143/62 101/144/62
f 101/144/63 102/143/63 104/145/63 103/146/63
f 103/146/64 104/145/64 106/147/64 105/148/64
f 105/148/65 106/147/65 108/149/65 107/150/65
f 107/150/66 108/149/66 110/151/66 109/152/66
f 109/152/67 110/151/67 112/153/67 111/154/67
f 111/154/68 112/153/68 114/155/68 113/156/68
f 113/156/69 114/155/69 116/157/69 115/158/69
f 115/158/70 116/157/70 118/159/70 117/160/70
f 117/160/71 118/159/71 120/161/71 119/162/71
f 119/162/72 120/161/72 122/163/72 121/164/72
f 121/164/73 122/163/73 124/165/73 123/166/73
f 123/166/74 124/165/74 126/167/74 125/168/74
f 68/169/75 66/170/75 128/171/75 126/172/75 124/173/75 122/174/75 120/175/75 118/176/75 116/177/75 114/178/75 112/179/75 110/180/75 108/181/75 106/182/75 104/183/75 102/184/75 100/185/75 98/186/75 96/187/75 94/188/75 92/189/75 90/190/75 88/191/75 86/192/75 84/193/75 82/194/75 80/195/75 78/196/75 76/197/75 74/198/75 72/199/75 70/200/75
f 125/168/76 126/167/76 128/201/76 127/202/76
f 127/202/77 128/201/77 66/203/77 65/204/77
f 65/205/78 67/206/78 69/207/78 71/208/78 73/209/78 75/210/78 77/211/78 79/212/78 81/213/78 83/214/78 85/215/78 87/216/78 89/217/78 91/218/78 93/219/78 95/220/78 97/221/78 99/222/78 101/223/78 103/224/78 105/225/78 107/226/78 109/227/78 111/228/78 113/229/78 115/230/78 117/231/78 119/232/78 121/233/78 123/234/78 125/235/78 127/236/78
o Cilindro.001
v 10.536859 237.936661 0.559900
v 10.536859 238.036667 0.559900
v 10.634404 237.936661 0.569508
v 10.634404 238.036667 0.569508
v 10.728200 237.936661 0.597960
v 10.728200 238.036667 0.597960
v 10.814644 237.936661 0.644165
v 10.814644 238.036667 0.644165
v 10.890412 237.936661 0.706347
v 10.890412 238.036667 0.706347
v 10.952594 237.936661 0.782115
v 10.952594 238.036667 0.782115
v 10.998798 237.936661 0.868558
v 10.998798 238.036667 0.868558
v 11.027251 237.936661 0.962355
v 11.027251 238.036667 0.962355
v 11.036859 237.936661 1.059900
v 11.036859 238.036667 1.059900
v 11.027251 237.936661 1.157445
v 11.027251 238.036667 1.157445
v 10.998798 237.936661 1.251242
v 10.998798 238.036667 1.251242
v 10.952594 237.936661 1.337685
v 10.952594 238.036667 1.337685
v 10.890412 237.936661 1.413454
v 10.890412 238.036667 1.413454
v 10.814644 237.936661 1.475635
v 10.814644 238.036667 1.475635
v 10.728200 237.936661 1.521840
v 10.728200 238.036667 1.521840
v 10.634404 237.936661 1.550293
v 10.634404 238.036667 1.550293
v 10.536859 237.936661 1.559900
v 10.536859 238.036667 1.559900
v 10.439313 237.936661 1.550293
v 10.439313 238.036667 1.550293
v 10.345517 237.936661 1.521840
v 10.345517 238.036667 1.521840
v 10.259073 237.936661 1.475635
v 10.259073 238.036667 1.475635
v 10.183305 237.936661 1.413454
v 10.183305 238.036667 1.413454
v 10.121123 237.936661 1.337685
v 10.121123 238.036667 1.337685
v 10.074919 237.936661 1.251242
v 10.074919 238.036667 1.251242
v 10.046466 237.936661 1.157445
v 10.046466 238.036667 1.157445
v 10.036859 237.936661 1.059900
v 10.036859 238.036667 1.059900
v 10.046466 237.936661 0.962355
v 10.046466 238.036667 0.962355
v 10.074919 237.936661 0.868558
v 10.074919 238.036667 0.868558
v 10.121123 237.936661 0.782115
v 10.121123 238.036667 0.782115
v 10.183305 237.936661 0.706347
v 10.183305 238.036667 0.706347
v 10.259073 237.936661 0.644165
v 10.259073 238.036667 0.644165
v 10.345517 237.936661 0.597960
v 10.345517 238.036667 0.597960
v 10.439313 237.936661 0.569508
v 10.439313 238.036667 0.569508
vn 0.0980 -0.0000 -0.9952
vn 0.2903 -0.0000 -0.9569
vn 0.4714 -0.0000 -0.8819
vn 0.6344 -0.0000 -0.7730
vn 0.7730 -0.0000 -0.6344
vn 0.8819 -0.0000 -0.4714
vn 0.9569 -0.0000 -0.2903
vn 0.9952 -0.0000 -0.0980
vn 0.9952 -0.0000 0.0980
vn 0.9569 -0.0000 0.2903
vn 0.8819 -0.0000 0.4714
vn 0.7730 -0.0000 0.6344
vn 0.6344 -0.0000 0.7730
vn 0.4714 -0.0000 0.8819
vn 0.2903 -0.0000 0.9569
vn 0.0980 -0.0000 0.9952
vn -0.0980 -0.0000 0.9952
vn -0.2903 -0.0000 0.9569
vn -0.4714 -0.0000 0.8819
vn -0.6344 -0.0000 0.7730
vn -0.7730 -0.0000 0.6344
vn -0.8819 -0.0000 0.4714
vn -0.9569 -0.0000 0.2903
vn -0.9952 -0.0000 0.0980
vn -0.9952 -0.0000 -0.0980
vn -0.9569 -0.0000 -0.2903
vn -0.8819 -0.0000 -0.4714
vn -0.7730 -0.0000 -0.6344
vn -0.6344 -0.0000 -0.7730
vn -0.4714 -0.0000 -0.8819
vn -0.0000 1.0000 -0.0000
vn -0.2903 -0.0000 -0.9569
vn -0.0980 -0.0000 -0.9952
vn -0.0000 -1.0000 -0.0000
vt 1.000000 0.500000
vt 1.000000 1.000000
vt 0.968750 1.000000
vt 0.968750 0.500000
vt 0.937500 1.000000
vt 0.937500 0.500000
vt 0.906250 1.000000
vt 0.906250 0.500000
vt 0.875000 1.000000
vt 0.875000 0.500000
vt 0.843750 1.000000
vt 0.843750 0.500000
vt 0.812500 1.000000
vt 0.812500 0.500000
vt 0.781250 1.000000
vt 0.781250 0.500000
vt 0.750000 1.000000
vt 0.750000 0.500000
vt 0.718750 1.000000
vt 0.718750 0.500000
vt 0.687500 1.000000
vt 0.687500 0.500000
vt 0.656250 1.000000
vt 0.656250 0.500000
vt 0.625000 1.000000
vt 0.625000 0.500000
vt 0.593750 1.000000
vt 0.593750 0.500000
vt 0.562500 1.000000
vt 0.562500 0.500000
vt 0.531250 1.000000
vt 0.531250 0.500000
vt 0.500000 1.000000
vt 0.500000 0.500000
vt 0.468750 1.000000
vt 0.468750 0.500000
vt 0.437500 1.000000
vt 0.437500 0.500000
vt 0.406250 1.000000
vt 0.406250 0.500000
vt 0.375000 1.000000
vt 0.375000 0.500000
vt 0.343750 1.000000
vt 0.343750 0.500000
vt 0.312500 1.000000
vt 0.312500 0.500000
vt 0.281250 1.000000
vt 0.281250 0.500000
vt 0.250000 1.000000
vt 0.250000 0.500000
vt 0.218750 1.000000
vt 0.218750 0.500000
vt 0.187500 1.000000
vt 0.187500 0.500000
vt 0.156250 1.000000
vt 0.156250 0.500000
vt 0.125000 1.000000
vt 0.125000 0.500000
vt 0.093750 1.000000
vt 0.093750 0.500000
vt 0.062500 1.000000
vt 0.062500 0.500000
vt 0.296822 0.485388
vt 0.250000 0.490000
vt 0.203178 0.485388
vt 0.158156 0.471731
vt 0.116663 0.449553
vt 0.080294 0.419706
vt 0.050447 0.383337
vt 0.028269 0.341844
vt 0.014612 0.296822
vt 0.010000 0.250000
vt 0.014612 0.203178
vt 0.028269 0.158156
vt 0.050447 0.116663
vt 0.080294 0.080294
vt 0.116663 0.050447
vt 0.158156 0.028269
vt 0.203178 0.014612
vt 0.250000 0.010000
vt 0.296822 0.014612
vt 0.341844 0.028269
vt 0.383337 0.050447
vt 0.419706 0.080294
vt 0.449553 0.116663
vt 0.471731 0.158156
vt 0.485388 0.203178
vt 0.490000 0.250000
vt 0.485388 0.296822
vt 0.471731 0.341844
vt 0.449553 0.383337
vt 0.419706 0.419706
vt 0.383337 0.449553
vt 0.341844 0.471731
vt 0.031250 1.000000
vt 0.031250 0.500000
vt 0.000000 1.000000
vt 0.000000 0.500000
vt 0.750000 0.490000
vt 0.796822 0.485388
vt 0.841844 0.471731
vt 0.883337 0.449553
vt 0.919706 0.419706
vt 0.949553 0.383337
vt 0.971731 0.341844
vt 0.985388 0.296822
vt 0.990000 0.250000
vt 0.985388 0.203178
vt 0.971731 0.158156
vt 0.949553 0.116663
vt 0.919706 0.080294
vt 0.883337 0.050447
vt 0.841844 0.028269
vt 0.796822 0.014612
vt 0.750000 0.010000
vt 0.703178 0.014612
vt 0.658156 0.028269
vt 0.616663 0.050447
vt 0.580294 0.080294
vt 0.550447 0.116663
vt 0.528269 0.158156
vt 0.514612 0.203178
vt 0.510000 0.250000
vt 0.514612 0.296822
vt 0.528269 0.341844
vt 0.550447 0.383337
vt 0.580294 0.419706
vt 0.616663 0.449553
vt 0.658156 0.471731
vt 0.703178 0.485388
s 0
f 129/237/79 130/238/79 132/239/79 131/240/79
f 131/240/80 132/239/80 134/241/80 133/242/80
f 133/242/81 134/241/81 136/243/81 135/244/81
f 135/244/82 136/243/82 138/245/82 137/246/82
f 137/246/83 138/245/83 140/247/83 139/248/83
f 139/248/84 140/247/84 142/249/84 141/250/84
f 141/250/85 142/249/85 144/251/85 143/252/85
f 143/252/86 144/251/86 146/253/86 145/254/86
f 145/254/87 146/253/87 148/255/87 147/256/87
f 147/256/88 148/255/88 150/257/88 149/258/88
f 149/258/89 150/257/89 152/259/89 151/260/89
f 151/260/90 152/259/90 154/261/90 153/262/90
f 153/262/91 154/261/91 156/263/91 155/264/91
f 155/264/92 156/263/92 158/265/92 157/266/92
f 157/266/93 158/265/93 160/267/93 159/268/93
f 159/268/94 160/267/94 162/269/94 161/270/94
f 161/270/95 162/269/95 164/271/95 163/272/95
f 163/272/96 164/271/96 166/273/96 165/274/96
f 165/274/97 166/273/97 168/275/97 167/276/97
f 167/276/98 168/275/98 170/277/98 169/278/98
f 169/278/99 170/277/99 172/279/99 171/280/99
f 171/280/100 172/279/100 174/281/100 173/282/100
f 173/282/101 174/281/101 176/283/101 175/284/101
f 175/284/102 176/283/102 178/285/102 177/286/102
f 177/286/103 178/285/103 180/287/103 179/288/103
f 179/288/104 180/287/104 182/289/104 181/290/104
f 181/290/105 182/289/105 184/291/105 183/292/105
f 183/292/106 184/291/106 186/293/106 185/294/106
f 185/294/107 186/293/107 188/295/107 187/296/107
f 187/296/108 188/295/108 190/297/108 189/298/108
f 132/299/109 130/300/109 192/301/109 190/302/109 188/303/109 186/304/109 184/305/109 182/306/109 180/307/109 178/308/109 176/309/109 174/310/109 172/311/109 170/312/109 168/313/109 166/314/109 164/315/109 162/316/109 160/317/109 158/318/109 156/319/109 154/320/109 152/321/109 150/322/109 148/323/109 146/324/109 144/325/109 142/326/109 140/327/109 138/328/109 136/329/109 134/330/109
f 189/298/110 190/297/110 192/331/110 191/332/110
f 191/332/111 192/331/111 130/333/111 129/334/111
f 129/335/112 131/336/112 133/337/112 135/338/112 137/339/112 139/340/112 141/341/112 143/342/112 145/343/112 147/344/112 149/345/112 151/346/112 153/347/112 155/348/112 157/349/112 159/350/112 161/351/112 163/352/112 165/353/112 167/354/112 169/355/112 171/356/112 173/357/112 175/358/112 177/359/112 179/360/112 181/361/112 183/362/112 185/363/112 187/364/112 189/365/112 191/366/112
o Cilindro.002
v 10.536859 237.936661 6.625020
v 10.536859 238.036667 6.625020
v 10.634404 237.936661 6.634627
v 10.634404 238.036667 6.634627
v 10.728200 237.936661 6.663080
v 10.728200 238.036667 6.663080
v 10.814644 237.936661 6.709285
v 10.814644 238.036667 6.709285
v 10.890412 237.936661 6.771467
v 10.890412 238.036667 6.771467
v 10.952594 237.936661 6.847235
v 10.952594 238.036667 6.847235
v 10.998798 237.936661 6.933678
v 10.998798 238.036667 6.933678
v 11.027251 237.936661 7.027475
v 11.027251 238.036667 7.027475
v 11.036859 237.936661 7.125020
v 11.036859 238.036667 7.125020
v 11.027251 237.936661 7.222565
v 11.027251 238.036667 7.222565
v 10.998798 237.936661 7.316362
v 10.998798 238.036667 7.316362
v 10.952594 237.936661 7.402805
v 10.952594 238.036667 7.402805
v 10.890412 237.936661 7.478573
v 10.890412 238.036667 7.478573
v 10.814644 237.936661 7.540755
v 10.814644 238.036667 7.540755
v 10.728200 237.936661 7.586960
v 10.728200 238.036667 7.586960
v 10.634404 237.936661 7.615413
v 10.634404 238.036667 7.615413
v 10.536859 237.936661 7.625020
v 10.536859 238.036667 7.625020
v 10.439313 237.936661 7.615413
v 10.439313 238.036667 7.615413
v 10.345517 237.936661 7.586960
v 10.345517 238.036667 7.586960
v 10.259073 237.936661 7.540755
v 10.259073 238.036667 7.540755
v 10.183305 237.936661 7.478573
v 10.183305 238.036667 7.478573
v 10.121123 237.936661 7.402805
v 10.121123 238.036667 7.402805
v 10.074919 237.936661 7.316362
v 10.074919 238.036667 7.316362
v 10.046466 237.936661 7.222565
v 10.046466 238.036667 7.222565
v 10.036859 237.936661 7.125020
v 10.036859 238.036667 7.125020
v 10.046466 237.936661 7.027475
v 10.046466 238.036667 7.027475
v 10.074919 237.936661 6.933678
v 10.074919 238.036667 6.933678
v 10.121123 237.936661 6.847235
v 10.121123 238.036667 6.847235
v 10.183305 237.936661 6.771467
v 10.183305 238.036667 6.771467
v 10.259073 237.936661 6.709285
v 10.259073 238.036667 6.709285
v 10.345517 237.936661 6.663080
v 10.345517 238.036667 6.663080
v 10.439313 237.936661 6.634627
v 10.439313 238.036667 6.634627
vn 0.0980 -0.0000 -0.9952
vn 0.2903 -0.0000 -0.9569
vn 0.4714 -0.0000 -0.8819
vn 0.6344 -0.0000 -0.7730
vn 0.7730 -0.0000 -0.6344
vn 0.8819 -0.0000 -0.4714
vn 0.9569 -0.0000 -0.2903
vn 0.9952 -0.0000 -0.0980
vn 0.9952 -0.0000 0.0980
vn 0.9569 -0.0000 0.2903
vn 0.8819 -0.0000 0.4714
vn 0.7730 -0.0000 0.6344
vn 0.6344 -0.0000 0.7730
vn 0.4714 -0.0000 0.8819
vn 0.2903 -0.0000 0.9569
vn 0.0980 -0.0000 0.9952
vn -0.0980 -0.0000 0.9952
vn -0.2903 -0.0000 0.9569
vn -0.4714 -0.0000 0.8819
vn -0.6344 -0.0000 0.7730
vn -0.7730 -0.0000 0.6344
vn -0.8819 -0.0000 0.4714
vn -0.9569 -0.0000 0.2903
vn -0.9952 -0.0000 0.0980
vn -0.9952 -0.0000 -0.0980
vn -0.9569 -0.0000 -0.2903
vn -0.8819 -0.0000 -0.4714
vn -0.7730 -0.0000 -0.6344
vn -0.6344 -0.0000 -0.7730
vn -0.4714 -0.0000 -0.8819
vn -0.0000 1.0000 -0.0000
vn -0.2903 -0.0000 -0.9569
vn -0.0980 -0.0000 -0.9952
vn -0.0000 -1.0000 -0.0000
vt 1.000000 0.500000
vt 1.000000 1.000000
vt 0.968750 1.000000
vt 0.968750 0.500000
vt 0.937500 1.000000
vt 0.937500 0.500000
vt 0.906250 1.000000
vt 0.906250 0.500000
vt 0.875000 1.000000
vt 0.875000 0.500000
vt 0.843750 1.000000
vt 0.843750 0.500000
vt 0.812500 1.000000
vt 0.812500 0.500000
vt 0.781250 1.000000
vt 0.781250 0.500000
vt 0.750000 1.000000
vt 0.750000 0.500000
vt 0.718750 1.000000
vt 0.718750 0.500000
vt 0.687500 1.000000
vt 0.687500 0.500000
vt 0.656250 1.000000
vt 0.656250 0.500000
vt 0.625000 1.000000
vt 0.625000 0.500000
vt 0.593750 1.000000
vt 0.593750 0.500000
vt 0.562500 1.000000
vt 0.562500 0.500000
vt 0.531250 1.000000
vt 0.531250 0.500000
vt 0.500000 1.000000
vt 0.500000 0.500000
vt 0.468750 1.000000
vt 0.468750 0.500000
vt 0.437500 1.000000
vt 0.437500 0.500000
vt 0.406250 1.000000
vt 0.406250 0.500000
vt 0.375000 1.000000
vt 0.375000 0.500000
vt 0.343750 1.000000
vt 0.343750 0.500000
vt 0.312500 1.000000
vt 0.312500 0.500000
vt 0.281250 1.000000
vt 0.281250 0.500000
vt 0.250000 1.000000
vt 0.250000 0.500000
vt 0.218750 1.000000
vt 0.218750 0.500000
vt 0.187500 1.000000
vt 0.187500 0.500000
vt 0.156250 1.000000
vt 0.156250 0.500000
vt 0.125000 1.000000
vt 0.125000 0.500000
vt 0.093750 1.000000
vt 0.093750 0.500000
vt 0.062500 1.000000
vt 0.062500 0.500000
vt 0.296822 0.485388
vt 0.250000 0.490000
vt 0.203178 0.485388
vt 0.158156 0.471731
vt 0.116663 0.449553
vt 0.080294 0.419706
vt 0.050447 0.383337
vt 0.028269 0.341844
vt 0.014612 0.296822
vt 0.010000 0.250000
vt 0.014612 0.203178
vt 0.028269 0.158156
vt 0.050447 0.116663
vt 0.080294 0.080294
vt 0.116663 0.050447
vt 0.158156 0.028269
vt 0.203178 0.014612
vt 0.250000 0.010000
vt 0.296822 0.014612
vt 0.341844 0.028269
vt 0.383337 0.050447
vt 0.419706 0.080294
vt 0.449553 0.116663
vt 0.471731 0.158156
vt 0.485388 0.203178
vt 0.490000 0.250000
vt 0.485388 0.296822
vt 0.471731 0.341844
vt 0.449553 0.383337
vt 0.419706 0.419706
vt 0.383337 0.449553
vt 0.341844 0.471731
vt 0.031250 1.000000
vt 0.031250 0.500000
vt 0.000000 1.000000
vt 0.000000 0.500000
vt 0.750000 0.490000
vt 0.796822 0.485388
vt 0.841844 0.471731
vt 0.883337 0.449553
vt 0.919706 0.419706
vt 0.949553 0.383337
vt 0.971731 0.341844
vt 0.985388 0.296822
vt 0.990000 0.250000
vt 0.985388 0.203178
vt 0.971731 0.158156
vt 0.949553 0.116663
vt 0.919706 0.080294
vt 0.883337 0.050447
vt 0.841844 0.028269
vt 0.796822 0.014612
vt 0.750000 0.010000
vt 0.703178 0.014612
vt 0.658156 0.028269
vt 0.616663 0.050447
vt 0.580294 0.080294
vt 0.550447 0.116663
vt 0.528269 0.158156
vt 0.514612 0.203178
vt 0.510000 0.250000
vt 0.514612 0.296822
vt 0.528269 0.341844
vt 0.550447 0.383337
vt 0.580294 0.419706
vt 0.616663 0.449553
vt 0.658156 0.471731
vt 0.703178 0.485388
s 0
f 193/367/113 194/368/113 196/369/113 195/370/113
f 195/370/114 196/369/114 198/371/114 197/372/114
f 197/372/115 198/371/115 200/373/115 199/374/115
f 199/374/116 200/373/116 202/375/116 201/376/116
f 201/376/117 202/375/117 204/377/117 203/378/117
f 203/378/118 204/377/118 206/379/118 205/380/118
f 205/380/119 206/379/119 208/381/119 207/382/119
f 207/382/120 208/381/120 210/383/120 209/384/120
f 209/384/121 210/383/121 212/385/121 211/386/121
f 211/386/122 212/385/122 214/387/122 213/388/122
f 213/388/123 214/387/123 216/389/123 215/390/123
f 215/390/124 216/389/124 218/391/124 217/392/124
f 217/392/125 218/391/125 220/393/125 219/394/125
f 219/394/126 220/393/126 222/395/126 221/396/126
f 221/396/127 222/395/127 224/397/127 223/398/127
f 223/398/128 224/397/128 226/399/128 225/400/128
f 225/400/129 226/399/129 228/401/129 227/402/129
f 227/402/130 228/401/130 230/403/130 229/404/130
f 229/404/131 230/403/131 232/405/131 231/406/131
f 231/406/132 232/405/132 234/407/132 233/408/132
f 233/408/133 234/407/133 236/409/133 235/410/133
f 235/410/134 236/409/134 238/411/134 237/412/134
f 237/412/135 238/411/135 240/413/135 239/414/135
f 239/414/136 240/413/136 242/415/136 241/416/136
f 241/416/137 242/415/137 244/417/137 243/418/137
f 243/418/138 244/417/138 246/419/138 245/420/138
f 245/420/139 246/419/139 248/421/139 247/422/139
f 247/422/140 248/421/140 250/423/140 249/424/140
f 249/424/141 250/423/141 252/425/141 251/426/141
f 251/426/142 252/425/142 254/427/142 253/428/142
f 196/429/143 194/430/143 256/431/143 254/432/143 252/433/143 250/434/143 248/435/143 246/436/143 244/437/143 242/438/143 240/439/143 238/440/143 236/441/143 234/442/143 232/443/143 230/444/143 228/445/143 226/446/143 224/447/143 222/448/143 220/449/143 218/450/143 216/451/143 214/452/143 212/453/143 210/454/143 208/455/143 206/456/143 204/457/143 202/458/143 200/459/143 198/460/143
f 253/428/144 254/427/144 256/461/144 255/462/144
f 255/462/145 256/461/145 194/463/145 193/464/145
f 193/465/146 195/466/146 197/467/146 199/468/146 201/469/146 203/470/146 205/471/146 207/472/146 209/473/146 211/474/146 213/475/146 215/476/146 217/477/146 219/478/146 221/479/146 223/480/146 225/481/146 227/482/146 229/483/146 231/484/146 233/485/146 235/486/146 237/487/146 239/488/146 241/489/146 243/490/146 245/491/146 247/492/146 249/493/146 251/494/146 253/495/146 255/496/146
o Cubo.008
v 8.467346 236.486664 -3.033704
v 8.467346 239.486664 -3.033704
v 8.467346 236.486664 -3.133704
v 8.467346 239.486664 -3.133704
v 10.867346 236.486664 -3.033704
v 10.867346 239.486664 -3.033704
v 10.867346 236.486664 -3.133704
v 10.867346 239.486664 -3.133704
vn -1.0000 -0.0000 -0.0000
vn -0.0000 -0.0000 -1.0000
vn 1.0000 -0.0000 -0.0000
vn -0.0000 -0.0000 1.0000
vn -0.0000 -1.0000 -0.0000
vn -0.0000 1.0000 -0.0000
vt 0.375000 0.000000
vt 0.625000 0.000000
vt 0.625000 0.250000
vt 0.375000 0.250000
vt 0.625000 0.500000
vt 0.375000 0.500000
vt 0.625000 0.750000
vt 0.375000 0.750000
vt 0.625000 1.000000
vt 0.375000 1.000000
vt 0.125000 0.500000
vt 0.125000 0.750000
vt 0.875000 0.500000
vt 0.875000 0.750000
s 0
f 257/497/147 258/498/147 260/499/147 259/500/147
f 259/500/148 260/499/148 264/501/148 263/502/148
f 263/502/149 264/501/149 262/503/149 261/504/149
f 261/504/150 262/503/150 258/505/150 257/506/150
f 259/507/151 263/502/151 261/504/151 257/508/151
f 264/501/152 260/509/152 258/510/152 262/503/152
o Cubo.009
v 8.402938 236.486664 4.180033
v 8.402938 239.486664 4.180033
v 8.402938 236.486664 4.080032
v 8.402938 239.486664 4.080032
v 10.802938 236.486664 4.180033
v 10.802938 239.486664 4.180033
v 10.802938 236.486664 4.080032
v 10.802938 239.486664 4.080032
vn -1.0000 -0.0000 -0.0000
vn -0.0000 -0.0000 -1.0000
vn 1.0000 -0.0000 -0.0000
vn -0.0000 -0.0000 1.0000
vn -0.0000 -1.0000 -0.0000
vn -0.0000 1.0000 -0.0000
vt 0.375000 0.000000
vt 0.625000 0.000000
vt 0.625000 0.250000
vt 0.375000 0.250000
vt 0.625000 0.500000
vt 0.375000 0.500000
vt 0.625000 0.750000
vt 0.375000 0.750000
vt 0.625000 1.000000
vt 0.375000 1.000000
vt 0.125000 0.500000
vt 0.125000 0.750000
vt 0.875000 0.500000
vt 0.875000 0.750000
s 0
f 265/511/153 266/512/153 268/513/153 267/514/153
f 267/514/154 268/513/154 272/515/154 271/516/154
f 271/516/155 272/515/155 270/517/155 269/518/155
f 269/518/156 270/517/156 266/519/156 265/520/156
f 267/521/157 271/516/157 269/518/157 265/522/157
f 272/515/158 268/523/158 266/524/158 270/517/158
o Cubo.007
v -8.362865 227.521500 5.237788
v -8.362865 231.521500 5.237788
v -8.362865 227.521500 5.037788
v -8.362865 231.521500 5.037788
v -4.362865 227.521500 5.237788
v -4.362865 231.521500 5.237788
v -4.362865 227.521500 5.037788
v -4.362865 231.521500 5.037788
vn -1.0000 -0.0000 -0.0000
vn -0.0000 -0.0000 -1.0000
vn 1.0000 -0.0000 -0.0000
vn -0.0000 -0.0000 1.0000
vn -0.0000 -1.0000 -0.0000
vn -0.0000 1.0000 -0.0000
vt 0.375000 0.000000
vt 0.625000 0.000000
vt 0.625000 0.250000
vt 0.375000 0.250000
vt 0.625000 0.500000
vt 0.375000 0.500000
vt 0.625000 0.750000
vt 0.375000 0.750000
vt 0.625000 1.000000
vt 0.375000 1.000000
vt 0.125000 0.500000
vt 0.125000 0.750000
vt 0.875000 0.500000
vt 0.875000 0.750000
s 0
f 273/525/159 274/526/159 276/527/159 275/528/159
f 275/528/160 276/527/160 280/529/160 279/530/160
f 279/530/161 280/529/161 278/531/161 277/532/161
f 277/532/162 278/531/162 274/533/162 273/534/162
f 275/535/163 279/530/163 277/532/163 273/536/163
f 280/529/164 276/537/164 274/538/164 278/531/164
o Plano
v -1.963373 237.986664 5.879080
v 4.036627 237.986664 5.879080
v -1.963373 237.986664 -6.120920
v 4.036627 237.986664 -6.120920
vn -0.0000 1.0000 -0.0000
vt 0.000000 0.000000
vt 1.000000 0.000000
vt 1.000000 1.000000
vt 0.000000 1.000000
s 0
f 281/539/165 282/540/165 284/541/165 283/542/165
